<?xml version="1.0" encoding="utf-8"?>
<!-- Generator: Adobe Illustrator 16.0.0, SVG Export Plug-In . SVG Version: 6.00 Build 0)  -->
<!DOCTYPE svg PUBLIC "-//W3C//DTD SVG 1.1//EN" "http://www.w3.org/Graphics/SVG/1.1/DTD/svg11.dtd">
<svg version="1.1" id="Layer_1" xmlns="http://www.w3.org/2000/svg" xmlns:xlink="http://www.w3.org/1999/xlink" x="0px" y="0px"
	 width="25.612px" height="10.954px" viewBox="17.64 11.496 25.612 10.954" enable-background="new 17.64 11.496 25.612 10.954"
	 xml:space="preserve">
<g>
	<path fill="#FFFFFF" d="M29.076,21.749c-0.378-0.272-0.378-0.716,0-0.988l11.839-8.559c0.375-0.271,0.99-0.271,1.368,0l0.688,0.498
		c0.375,0.272,0.375,0.718,0,0.987l-11.842,8.56c-0.375,0.271-0.99,0.271-1.367,0L29.076,21.749z"/>
</g>
<g>
	<path fill="#FFFFFF" d="M18.609,12.202c0.376-0.271,0.99-0.271,1.367,0l11.84,8.559c0.377,0.272,0.377,0.715,0,0.987l-0.688,0.499
		c-0.375,0.271-0.99,0.271-1.367,0l-11.841-8.56c-0.375-0.27-0.375-0.715,0-0.987L18.609,12.202z"/>
</g>
</svg>
