<?xml version="1.0" encoding="utf-8"?>
<!-- Generator: Adobe Illustrator 16.0.0, SVG Export Plug-In . SVG Version: 6.00 Build 0)  -->
<!DOCTYPE svg PUBLIC "-//W3C//DTD SVG 1.1//EN" "http://www.w3.org/Graphics/SVG/1.1/DTD/svg11.dtd">
<svg version="1.1" id="Layer_1" xmlns="http://www.w3.org/2000/svg" xmlns:xlink="http://www.w3.org/1999/xlink" x="0px" y="0px"
	 width="13.417px" height="5.917px" viewBox="6.056 2.561 13.417 5.917" enable-background="new 6.056 2.561 13.417 5.917"
	 xml:space="preserve">
<g>
	<path fill="#616161" d="M12.165,7.596c-0.178-0.127-0.178-0.335,0-0.464l5.546-4.009c0.176-0.126,0.463-0.126,0.641,0l0.322,0.233
		c0.176,0.128,0.176,0.337,0,0.462L13.126,7.83c-0.176,0.127-0.464,0.127-0.641,0L12.165,7.596z"/>
</g>
<g>
	<path fill="#616161" d="M7.26,3.123c0.176-0.126,0.464-0.126,0.64,0l5.548,4.009c0.176,0.129,0.176,0.336,0,0.464L13.126,7.83
		c-0.175,0.127-0.464,0.127-0.641,0L6.937,3.819c-0.175-0.127-0.175-0.334,0-0.462L7.26,3.123z"/>
</g>
</svg>
