<?xml version="1.0" encoding="utf-8"?>
<!-- Generator: Adobe Illustrator 16.0.0, SVG Export Plug-In . SVG Version: 6.00 Build 0)  -->
<!DOCTYPE svg PUBLIC "-//W3C//DTD SVG 1.1//EN" "http://www.w3.org/Graphics/SVG/1.1/DTD/svg11.dtd">
<svg version="1.1" id="Layer_1" xmlns="http://www.w3.org/2000/svg" xmlns:xlink="http://www.w3.org/1999/xlink" x="0px" y="0px"
	 width="1750px" height="443px" viewBox="0 0 1750 443" enable-background="new 0 0 1750 443" xml:space="preserve">
<path fill="#4D75A3" stroke="#FFFFFF" stroke-miterlimit="10" d="M103.926,14.997h1542.145c33.099,0,59.929,26.83,59.929,59.926
	v293.148c0,33.1-26.83,59.929-59.929,59.929H103.926C70.83,428,44,401.171,44,368.071V74.923C44,41.827,70.83,14.997,103.926,14.997
	L103.926,14.997z"/>
<path fill-rule="evenodd" clip-rule="evenodd" fill="#FFFFFF" d="M1512.702,228.653c0.411,6.418,1.77,11.784,4.073,16.103
	c2.301,4.318,5.344,7.753,9.128,10.301c3.702,2.552,8.021,4.381,12.957,5.491c4.935,1.111,10.321,1.665,16.162,1.665
	c5.018,0,9.952-0.554,14.808-1.665c4.852-1.11,9.292-2.57,13.323-4.38c3.537-1.563,6.807-3.248,9.81-5.06
	c3-1.808,5.446-3.412,7.341-4.811h4.565v35.656c-3.537,1.401-6.767,2.696-9.688,3.887c-2.92,1.193-6.929,2.406-12.028,3.64
	c-4.688,1.235-9.522,2.201-14.497,2.9c-4.978,0.698-11.043,1.048-18.199,1.048c-26.156,0-46.207-6.25-60.147-18.753
	c-13.943-12.503-20.915-30.31-20.915-53.426c0-22.619,6.498-40.673,19.494-54.165c12.998-13.489,31.174-20.233,54.537-20.233
	c21.222,0,37.177,5.718,47.87,17.15c10.692,11.432,16.039,27.801,16.039,49.105v15.545H1512.702L1512.702,228.653z M1558.415,181.77
	c-3.989-4.77-10.097-7.156-18.321-7.156c-8.389,0-14.952,2.508-19.679,7.525c-4.733,5.017-7.341,11.844-7.835,20.48h52.189
	C1564.522,193.491,1562.403,186.54,1558.415,181.77L1558.415,181.77z M1416.284,289.728H1373.1V181.275h-42.938V151.17h129.057
	v30.105h-42.935V289.728L1416.284,289.728z M1277.668,289.728l-32.821-54.903h-11.105v54.903h-43.182V151.17h43.182v55.645
	c6.088-0.08,10.631-0.966,13.634-2.653c3.003-1.685,6.272-6.148,9.81-13.387c1.15-2.469,2.387-5.182,3.702-8.142
	c1.314-2.963,2.508-5.594,3.579-7.897c4.358-9.131,9.725-15.381,16.1-18.753s14.128-5.06,23.259-5.06c3.207,0,6.25,0.042,9.13,0.125
	c2.878,0.083,4.935,0.122,6.168,0.122v37.014h-8.389c-2.634,0-4.998,0.514-7.094,1.543c-2.1,1.028-3.93,2.324-5.492,3.886
	c-1.563,1.645-2.735,3.29-3.517,4.935c-0.781,1.647-1.543,3.25-2.281,4.813c-1.895,4.44-3.293,7.608-4.196,9.5
	c-0.906,1.892-2.509,3.744-4.813,5.551l44.048,71.315H1277.668L1277.668,289.728z M1118.193,275.046
	c-2.96,2.469-5.614,4.688-7.957,6.661c-2.344,1.975-5.492,3.949-9.44,5.924c-3.867,1.892-7.628,3.329-11.287,4.318
	c-3.662,0.985-8.781,1.479-15.361,1.479c-12.259,0-22.438-4.11-30.537-12.338c-8.104-8.225-12.153-18.588-12.153-31.091
	c0-10.281,2.055-18.588,6.168-24.924c4.113-6.335,10.034-11.352,17.768-15.054c7.813-3.781,17.15-6.415,28.008-7.895
	c10.858-1.483,22.537-2.634,35.04-3.455v-0.742c0-7.65-2.818-12.935-8.452-15.855c-5.636-2.917-14.088-4.38-25.354-4.38
	c-5.1,0-11.063,0.926-17.89,2.778c-6.829,1.849-13.491,4.216-19.988,7.094h-3.702v-33.438c4.276-1.233,11.185-2.693,20.728-4.381
	c9.543-1.685,19.165-2.528,28.872-2.528c23.853,0,41.23,3.969,52.128,11.906c10.9,7.94,16.35,20.051,16.35,36.335v94.265h-42.938
	V275.046L1118.193,275.046z M1118.193,224.704c-7.321,0.742-13.244,1.381-17.768,1.915c-4.525,0.534-8.965,1.583-13.323,3.146
	c-3.784,1.317-6.725,3.312-8.824,5.982c-2.097,2.676-3.145,6.233-3.145,10.673c0,6.5,1.747,10.964,5.244,13.387
	c3.494,2.429,8.656,3.643,15.483,3.643c3.783,0,7.65-0.867,11.599-2.594c3.946-1.728,7.525-4.151,10.733-7.279V224.704
	L1118.193,224.704z M983.645,289.728H940.46V181.275h-42.938V151.17h129.058v30.105h-42.936V289.728L983.645,289.728z
	 M839.1,230.381h-44.665v59.347h-43.182V151.17h43.182v47.995H839.1V151.17h43.185v138.557H839.1V230.381L839.1,230.381z
	 M659.27,294.046c-22.623,0-40.205-6.558-52.748-19.68c-12.542-13.119-18.815-31.07-18.815-53.855
	c0-23.031,6.272-41.065,18.815-54.102c12.543-13.037,30.125-19.557,52.748-19.557c22.702,0,40.301,6.56,52.807,19.679
	c12.503,13.122,18.753,31.114,18.753,53.98c0,22.785-6.23,40.736-18.69,53.855C699.676,287.488,682.051,294.046,659.27,294.046
	L659.27,294.046z M684.5,200.213c-1.358-5.469-3.228-9.847-5.613-13.139c-2.551-3.455-5.429-5.861-8.637-7.219
	c-3.208-1.355-6.869-2.034-10.98-2.034c-3.87,0-7.364,0.597-10.489,1.79c-3.128,1.193-6.006,3.474-8.636,6.847
	c-2.469,3.207-4.44,7.608-5.923,13.202c-1.48,5.594-2.219,12.628-2.219,21.099c0,8.472,0.696,15.318,2.097,20.542
	c1.397,5.225,3.207,9.398,5.429,12.523c2.301,3.207,5.182,5.551,8.637,7.031c3.454,1.482,7.278,2.222,11.474,2.222
	c3.455,0,6.972-0.739,10.548-2.222c3.58-1.48,6.435-3.699,8.577-6.662c2.548-3.534,4.48-7.793,5.798-12.771
	c1.315-4.974,1.975-11.863,1.975-20.665C686.537,212.534,685.858,205.685,684.5,200.213L684.5,200.213z M535.083,289.728
	l-32.818-54.903h-11.105v54.903h-43.185V151.17h43.185v55.645c6.085-0.08,10.63-0.966,13.633-2.653
	c3.003-1.685,6.273-6.148,9.81-13.387c1.151-2.469,2.384-5.182,3.702-8.142c1.315-2.963,2.509-5.594,3.577-7.897
	c4.36-9.131,9.727-15.381,16.102-18.753c6.373-3.372,14.128-5.06,23.256-5.06c3.21,0,6.25,0.042,9.13,0.125
	c2.878,0.083,4.938,0.122,6.171,0.122v37.014h-8.39c-2.633,0-4.997,0.514-7.096,1.543c-2.097,1.028-3.929,2.324-5.489,3.886
	c-1.565,1.645-2.736,3.29-3.517,4.935c-0.784,1.647-1.542,3.25-2.284,4.813c-1.892,4.44-3.29,7.608-4.193,9.5
	c-0.906,1.892-2.512,3.744-4.813,5.551l44.048,71.315H535.083L535.083,289.728z M352.582,352.512H194.011
	c-28.403,0-51.429-23.026-51.429-51.43V142.511c0-28.403,23.026-51.429,51.429-51.429h158.571c28.404,0,51.429,23.025,51.429,51.429
	v158.571C404.011,329.485,380.986,352.512,352.582,352.512L352.582,352.512z M334.838,225.912
	c-5.616-6.054-13.094-10.065-22.432-12.029v-0.812c6.497-2.705,11.588-6.935,15.276-12.688c3.687-5.75,5.531-12.315,5.531-19.69
	c0-6.361-1.335-11.978-4.008-16.853c-2.673-4.872-6.716-8.761-12.131-11.67c-5.008-2.708-10.369-4.483-16.088-5.33
	s-14.125-1.27-25.225-1.27h-53.392v151.142h60.498c10.488,0,19.136-0.948,25.935-2.844c6.801-1.892,13.045-5.073,18.727-9.54
	c4.807-3.722,8.631-8.426,11.472-14.11s4.264-12.281,4.264-19.793C343.264,240.142,340.455,231.969,334.838,225.912L334.838,225.912
	z M294.236,266.057c-3.926,1.693-7.781,2.608-11.571,2.741c-3.79,0.137-10.625,0.205-20.502,0.205h-2.031V231.14h7.002
	c6.767,0,12.165,0.051,16.191,0.153c4.025,0.102,7.19,0.594,9.491,1.472c3.79,1.354,6.63,3.349,8.525,5.988
	c1.895,2.639,2.844,6.292,2.844,10.963c0,3.653-0.798,6.921-2.386,9.796C300.208,262.387,297.688,264.571,294.236,266.057
	L294.236,266.057z M286.622,202.92c-2.775,1.287-5.463,1.997-8.068,2.133c-2.605,0.137-7.157,0.202-13.654,0.202h-4.77v-31.975
	h2.639c6.767,0,11.858,0.051,15.275,0.153c3.417,0.103,6.378,0.693,8.883,1.775c2.64,1.154,4.583,3.012,5.835,5.583
	c1.253,2.574,1.878,5.077,1.878,7.511c0,3.318-0.577,6.228-1.725,8.73C291.764,199.54,289.668,201.5,286.622,202.92L286.622,202.92z
	"/>
</svg>
