<svg id="Layer_1" data-name="Layer 1" xmlns="http://www.w3.org/2000/svg" width="141.188" height="52.278" viewBox="0 0 141.188 52.278"><defs><style>.cls-1{fill:#376e96;}.cls-2{fill:#fff;}.cls-3{fill:#3b5a9a;}.cls-4{fill:#f26622;}.cls-5{fill:#1754a5;}.cls-6{fill:#01a8e0;}.cls-7{fill:#2a5d7c;}.cls-8{fill:#314f85;}.cls-9{fill:#d74f27;}.cls-10{fill:#1b437b;}.cls-11{fill:#0191b2;}</style></defs><title>soc</title><rect class="cls-1" x="0.159" width="24.997" height="24.997"/><path id="path9" class="cls-2" d="M12.487,17.233h0.95a0.8,0.8,0,0,0,.433-0.189A0.7,0.7,0,0,0,14,16.626s-0.019-1.274.573-1.462S15.905,16.4,16.7,16.941a1.505,1.505,0,0,0,1.056.322l2.122-.03s1.11-.069.584-0.941a7.1,7.1,0,0,0-1.578-1.825c-1.331-1.235-1.153-1.035.45-3.172,0.976-1.3,1.367-2.1,1.244-2.435a0.926,0.926,0,0,0-.834-0.239l-2.39.015a0.542,0.542,0,0,0-.308.054,0.668,0.668,0,0,0-.211.256,13.871,13.871,0,0,1-.883,1.863c-1.064,1.807-1.489,1.9-1.663,1.79-0.4-.261-0.3-1.05-0.3-1.611,0-1.751.266-2.481-.517-2.67a4.083,4.083,0,0,0-1.115-.111,5.156,5.156,0,0,0-1.983.2c-0.272.133-.482,0.43-0.354,0.447a1.072,1.072,0,0,1,.705.354,2.306,2.306,0,0,1,.236,1.081s0.141,2.061-.329,2.317c-0.322.176-.764-0.183-1.713-1.822A15.238,15.238,0,0,1,8.064,9.02a0.709,0.709,0,0,0-.2-0.266A0.986,0.986,0,0,0,7.5,8.605L5.229,8.62a0.774,0.774,0,0,0-.466.158,0.494,0.494,0,0,0-.009.4,25.835,25.835,0,0,0,3.79,6.255,5.452,5.452,0,0,0,3.942,1.8h0Z"/><rect class="cls-3" x="29.087" width="24.997" height="24.997"/><path class="cls-2" d="M42.983,8.335h1.159V6.444h-1.42V6.453C40.5,6.531,40.043,7.781,40,9.093h0v1.518H38.864V12.5H40v6.051h2.269V12.5h1.7l0.337-1.891H42.269V9.241A0.846,0.846,0,0,1,42.983,8.335Z"/><rect class="cls-4" x="58.016" y="0.12" width="24.997" height="24.997"/><g id="Page-1"><path id="odnoklassniki" class="cls-2" d="M70.515,7.963A1.426,1.426,0,1,1,69.088,9.39a1.428,1.428,0,0,1,1.426-1.426h0Zm0,4.87A3.445,3.445,0,1,0,67.07,9.39a3.448,3.448,0,0,0,3.445,3.444h0Zm1.394,2.81a6.451,6.451,0,0,0,2-.829,1.01,1.01,0,0,0-1.075-1.709,4.374,4.374,0,0,1-4.638,0,1.01,1.01,0,0,0-1.075,1.709,6.463,6.463,0,0,0,2,.829L67.195,17.57A1.009,1.009,0,0,0,68.623,19L70.514,17.1,72.408,19a1.009,1.009,0,0,0,1.427-1.427l-1.926-1.926h0Z"/></g><rect class="cls-5" x="116.191" width="24.997" height="24.997"/><path class="cls-2" d="M130.748,5.366c-0.365-.107-0.736-0.2-1.1-0.295h-1.857c-0.371.092-.748,0.164-1.111,0.279a7.386,7.386,0,0,0-5.263,5.616,11.185,11.185,0,0,0-.163,1.785,5.889,5.889,0,0,0,.162,1.28A7.429,7.429,0,1,0,130.748,5.366Zm-2.073,13.985a6.853,6.853,0,1,1,6.878-6.84A6.829,6.829,0,0,1,128.675,19.351Z"/><path class="cls-2" d="M129.436,7.685a5.3,5.3,0,0,0-5.27,2.427,4.594,4.594,0,0,0,.3,5.221,5.387,5.387,0,0,0,5.558,1.864,0.579,0.579,0,0,0,.556-0.722c-0.116-.455-0.454-0.383-0.835-0.34a7.423,7.423,0,0,1-2,.051,3.776,3.776,0,0,1-3.168-3.8,3.965,3.965,0,0,1,3.9-3.582,4.04,4.04,0,0,1,4.263,3.17,3.381,3.381,0,0,1-.959,3,5.218,5.218,0,0,1-.2-0.9c-0.019-1.024.015-2.05-.024-3.074a1.133,1.133,0,0,0-.338-0.819,1.81,1.81,0,0,0-.887.229A2.889,2.889,0,0,0,126.3,14.52c1.028,1.207,2.538,1.316,4.184.256,0.037,0.117.061,0.186,0.08,0.257a1.212,1.212,0,0,0,.979.952,1.178,1.178,0,0,0,1.258-.514,4.741,4.741,0,0,0,1.029-2.358A4.9,4.9,0,0,0,129.436,7.685Zm-0.953,6.867a1.9,1.9,0,0,1-1.894-1.926,1.9,1.9,0,0,1,3.792,0A1.9,1.9,0,0,1,128.482,14.553Z"/><rect class="cls-6" x="86.945" width="24.997" height="24.997"/><path class="cls-2" d="M106.823,8.2a5.575,5.575,0,0,1-1.689.453A3.086,3.086,0,0,0,106.4,7.087a5.112,5.112,0,0,1-1.9.636h0a3.126,3.126,0,0,0-2.2-.889,2.964,2.964,0,0,0-3.045,2.875,2.726,2.726,0,0,0,.077.642h0a8.613,8.613,0,0,1-6.277-2.985,2.785,2.785,0,0,0,.923,3.8,2.047,2.047,0,0,1-1.33-.325A2.8,2.8,0,0,0,95,13.653a2.545,2.545,0,0,1-1.268.091A2.852,2.852,0,0,0,96.455,15.7a5.625,5.625,0,0,1-4.391,1.194,9.552,9.552,0,0,0,4.763,1.272,8.21,8.21,0,0,0,8.522-8.4V9.711c0-.014,0-0.028,0-0.042A5.1,5.1,0,0,0,106.823,8.2Z"/><rect class="cls-7" y="27.162" width="24.997" height="24.997"/><path id="path9-2" data-name="path9" class="cls-2" d="M12.328,44.395h0.95a0.8,0.8,0,0,0,.433-0.189,0.7,0.7,0,0,0,.131-0.417s-0.019-1.274.573-1.462,1.332,1.232,2.126,1.776a1.505,1.505,0,0,0,1.056.322l2.122-.03s1.11-.069.584-0.941a7.1,7.1,0,0,0-1.578-1.825c-1.331-1.235-1.153-1.035.45-3.172,0.976-1.3,1.367-2.1,1.244-2.435a0.926,0.926,0,0,0-.834-0.239L17.2,35.8a0.542,0.542,0,0,0-.308.054,0.668,0.668,0,0,0-.211.256,13.871,13.871,0,0,1-.883,1.863c-1.064,1.807-1.489,1.9-1.663,1.79-0.4-.261-0.3-1.05-0.3-1.611,0-1.751.266-2.481-.517-2.67a4.083,4.083,0,0,0-1.115-.111,5.156,5.156,0,0,0-1.983.2C9.94,35.7,9.73,36,9.858,36.018a1.072,1.072,0,0,1,.705.354,2.306,2.306,0,0,1,.236,1.081s0.141,2.061-.329,2.317c-0.322.176-.764-0.183-1.713-1.822a15.238,15.238,0,0,1-.853-1.768,0.709,0.709,0,0,0-.2-0.266,0.986,0.986,0,0,0-.367-0.148l-2.271.015a0.774,0.774,0,0,0-.466.158,0.494,0.494,0,0,0-.009.4A25.835,25.835,0,0,0,8.386,42.6a5.452,5.452,0,0,0,3.942,1.8h0Z"/><rect class="cls-8" x="28.929" y="27.162" width="24.997" height="24.997"/><path class="cls-2" d="M42.825,35.5h1.159V33.606h-1.42v0.008c-2.222.078-2.679,1.328-2.718,2.64h0v1.518H38.706v1.891h1.135v6.051H42.11V39.663h1.7l0.337-1.891H42.11V36.4A0.846,0.846,0,0,1,42.825,35.5Z"/><rect class="cls-9" x="57.858" y="27.282" width="24.997" height="24.997"/><g id="Page-1-2" data-name="Page-1"><path id="odnoklassniki-2" data-name="odnoklassniki" class="cls-2" d="M70.356,35.125a1.426,1.426,0,1,1-1.426,1.426,1.428,1.428,0,0,1,1.426-1.426h0Zm0,4.87a3.445,3.445,0,1,0-3.445-3.444A3.448,3.448,0,0,0,70.356,40h0Zm1.394,2.81a6.451,6.451,0,0,0,2-.829,1.01,1.01,0,0,0-1.075-1.709,4.374,4.374,0,0,1-4.638,0,1.01,1.01,0,0,0-1.075,1.709,6.463,6.463,0,0,0,2,.829l-1.926,1.926a1.009,1.009,0,0,0,1.428,1.427l1.892-1.893,1.893,1.893a1.009,1.009,0,0,0,1.427-1.427L71.75,42.806h0Z"/></g><rect class="cls-10" x="116.033" y="27.162" width="24.997" height="24.997"/><path class="cls-2" d="M130.59,32.528c-0.365-.107-0.736-0.2-1.1-0.295h-1.857c-0.371.092-.748,0.164-1.111,0.279a7.386,7.386,0,0,0-5.263,5.616,11.185,11.185,0,0,0-.163,1.785,5.889,5.889,0,0,0,.162,1.28A7.429,7.429,0,1,0,130.59,32.528Zm-2.073,13.985a6.853,6.853,0,1,1,6.878-6.84A6.829,6.829,0,0,1,128.517,46.513Z"/><path class="cls-2" d="M129.277,34.847a5.3,5.3,0,0,0-5.27,2.427,4.594,4.594,0,0,0,.3,5.221,5.387,5.387,0,0,0,5.558,1.864,0.579,0.579,0,0,0,.556-0.722c-0.116-.455-0.454-0.383-0.835-0.34a7.423,7.423,0,0,1-2,.051,3.776,3.776,0,0,1-3.168-3.8,3.965,3.965,0,0,1,3.9-3.582,4.04,4.04,0,0,1,4.263,3.17,3.381,3.381,0,0,1-.959,3,5.218,5.218,0,0,1-.2-0.9c-0.019-1.024.015-2.05-.024-3.074a1.133,1.133,0,0,0-.338-0.819,1.81,1.81,0,0,0-.887.229,2.889,2.889,0,0,0-4.033,4.108c1.028,1.207,2.538,1.316,4.184.256,0.037,0.117.061,0.186,0.08,0.257a1.212,1.212,0,0,0,.979.952,1.178,1.178,0,0,0,1.258-.514,4.741,4.741,0,0,0,1.029-2.358A4.9,4.9,0,0,0,129.277,34.847Zm-0.953,6.867a1.9,1.9,0,0,1-1.894-1.926,1.9,1.9,0,0,1,3.792,0A1.9,1.9,0,0,1,128.324,41.714Z"/><rect class="cls-11" x="86.787" y="27.162" width="24.997" height="24.997"/><path class="cls-2" d="M106.665,35.358a5.575,5.575,0,0,1-1.689.453,3.086,3.086,0,0,0,1.268-1.562,5.112,5.112,0,0,1-1.9.636h0a3.126,3.126,0,0,0-2.2-.889A2.964,2.964,0,0,0,99.1,36.872a2.726,2.726,0,0,0,.077.642h0A8.613,8.613,0,0,1,92.9,34.53a2.785,2.785,0,0,0,.923,3.8A2.047,2.047,0,0,1,92.493,38a2.8,2.8,0,0,0,2.349,2.811,2.545,2.545,0,0,1-1.268.091A2.852,2.852,0,0,0,96.3,42.858a5.625,5.625,0,0,1-4.391,1.194,9.552,9.552,0,0,0,4.763,1.272,8.21,8.21,0,0,0,8.522-8.4V36.872c0-.014,0-0.028,0-0.042A5.1,5.1,0,0,0,106.665,35.358Z"/></svg>