<svg id="Layer_1" data-name="Layer 1" xmlns="http://www.w3.org/2000/svg" width="120.326" height="113.076" viewBox="0 0 120.326 113.076"><defs><style>.cls-1{fill:#222c64;}.cls-2{fill:#fff;}.cls-3{fill:#0f1a43;}</style></defs><title>grupp</title><rect class="cls-1" width="55.993" height="55.993"/><path id="path9" class="cls-2" d="M27.615,38.065h2.128a1.8,1.8,0,0,0,.971-0.424,1.556,1.556,0,0,0,.293-0.935s-0.042-2.855,1.283-3.275c1.306-.414,2.984,2.759,4.761,3.979a3.372,3.372,0,0,0,2.366.721l4.754-.066s2.486-.154,1.307-2.109c-0.1-.16-0.687-1.446-3.534-4.089-2.981-2.767-2.582-2.319,1.009-7.1,2.186-2.914,3.061-4.693,2.787-5.456-0.26-.726-1.869-0.534-1.869-0.534l-5.353.033a1.214,1.214,0,0,0-.691.122,1.5,1.5,0,0,0-.472.574,31.071,31.071,0,0,1-1.977,4.173c-2.383,4.047-3.336,4.261-3.726,4.009-0.906-.586-0.68-2.352-0.68-3.608,0-3.922.595-5.557-1.159-5.981a9.146,9.146,0,0,0-2.5-.249,11.549,11.549,0,0,0-4.441.454c-0.609.3-1.079,0.963-.792,1a2.4,2.4,0,0,1,1.579.794,5.165,5.165,0,0,1,.529,2.422s0.315,4.617-.736,5.19c-0.722.393-1.711-.41-3.836-4.081a34.133,34.133,0,0,1-1.91-3.96,1.589,1.589,0,0,0-.441-0.6,2.208,2.208,0,0,0-.822-0.332l-5.086.033a1.734,1.734,0,0,0-1.043.354,1.107,1.107,0,0,0-.02.906s3.982,9.316,8.49,14.01a12.213,12.213,0,0,0,8.829,4.023h0Z"/><rect class="cls-3" y="57.083" width="55.993" height="55.993"/><path id="path9-2" data-name="path9" class="cls-2" d="M27.615,95.149h2.128a1.8,1.8,0,0,0,.971-0.424,1.556,1.556,0,0,0,.293-0.935s-0.042-2.855,1.283-3.275c1.306-.414,2.984,2.759,4.761,3.979a3.372,3.372,0,0,0,2.366.721l4.754-.066S46.656,95,45.477,93.04c-0.1-.16-0.687-1.446-3.534-4.089-2.981-2.767-2.582-2.319,1.009-7.1,2.186-2.914,3.061-4.693,2.787-5.456-0.26-.726-1.869-0.534-1.869-0.534l-5.353.033a1.214,1.214,0,0,0-.691.122,1.5,1.5,0,0,0-.472.574,31.071,31.071,0,0,1-1.977,4.173c-2.383,4.047-3.336,4.261-3.726,4.009-0.906-.586-0.68-2.352-0.68-3.608,0-3.922.595-5.557-1.159-5.981a9.146,9.146,0,0,0-2.5-.249,11.549,11.549,0,0,0-4.441.454c-0.609.3-1.079,0.963-.792,1a2.4,2.4,0,0,1,1.579.794,5.165,5.165,0,0,1,.529,2.422s0.315,4.617-.736,5.19c-0.722.393-1.711-.41-3.836-4.081a34.133,34.133,0,0,1-1.91-3.96,1.589,1.589,0,0,0-.441-0.6,2.208,2.208,0,0,0-.822-0.332l-5.086.033a1.734,1.734,0,0,0-1.043.354,1.107,1.107,0,0,0-.02.906s3.982,9.316,8.49,14.01a12.213,12.213,0,0,0,8.829,4.023h0Z"/><rect class="cls-1" x="64.333" width="55.993" height="55.993"/><path class="cls-2" d="M96.023,16.993h3.063V12H95.332v0.022c-5.873.207-7.08,3.509-7.184,6.978H88.137v4.011h-3v5h3V44h6V28h4.5l0.89-5H94.134V19.386C94.134,18.219,94.912,16.993,96.023,16.993Z"/><rect class="cls-3" x="64.333" y="57.083" width="55.993" height="55.993"/><path class="cls-2" d="M96.023,74.077h3.063v-5H95.332V69.1c-5.873.207-7.08,3.509-7.184,6.978H88.137v4.011h-3v5h3V101.08h6V85.088h4.5l0.89-5H94.134V76.47C94.134,75.3,94.912,74.077,96.023,74.077Z"/></svg>