<?xml version="1.0" standalone="no"?>
<!DOCTYPE svg PUBLIC "-//W3C//DTD SVG 1.1//EN" "http://www.w3.org/Graphics/SVG/1.1/DTD/svg11.dtd" >
<svg xmlns="http://www.w3.org/2000/svg">
<metadata></metadata>
<defs>
<font id="datsunbold" horiz-adv-x="1517" >
<font-face units-per-em="2048" ascent="1636" descent="-412" />
<missing-glyph horiz-adv-x="716" />
<glyph horiz-adv-x="0" />
<glyph unicode="&#xd;" horiz-adv-x="2048" />
<glyph horiz-adv-x="0" />
<glyph horiz-adv-x="0" />
<glyph unicode=" "  horiz-adv-x="716" />
<glyph unicode="&#x09;" horiz-adv-x="716" />
<glyph unicode="&#xa0;" horiz-adv-x="716" />
<glyph unicode="!" horiz-adv-x="946" d="M266 180q1 87 60 148q59 59 145 59t147 -59q59 -61 60 -148q0 -86 -60 -145q-61 -59 -147 -60q-86 0 -145 60q-59 59 -60 145zM295 1585h385l-53 -1079h-279z" />
<glyph unicode="&#x22;" horiz-adv-x="1241" d="M184 1585h348l-38 -772h-271zM709 1585h348l-39 -772h-270z" />
<glyph unicode="#" horiz-adv-x="1781" d="M164 383v256h303l55 287h-270v258h319l78 401h266l-75 -401h256l78 401h266l-76 -401h254v-258h-303l-53 -287h272v-256h-322l-71 -383h-273l74 383h-254l-72 -383h-272l74 383h-254zM737 639h254l56 287h-256z" />
<glyph unicode="$" horiz-adv-x="1345" d="M102 125l107 258q197 -117 328 -141v473q-223 92 -308 182q-96 102 -96 279q0 360 404 423v240l260 37v-272q174 -16 415 -119l-118 -283q-205 123 -297 146v-451q240 -109 321 -199q84 -94 84 -254q0 -186 -112 -305q-106 -115 -293 -149v-279h-260v271 q-219 25 -435 143zM424 1186q0 -107 113 -170v327q-113 -39 -113 -157zM797 256q115 45 114 168q1 102 -114 172v-340z" />
<glyph unicode="%" horiz-adv-x="2682" d="M205 1122q0 221 106 348q117 139 348 140q233 0 351 -144q104 -125 104 -340q0 -221 -106 -348q-117 -139 -349 -139q-233 0 -350 143q-104 125 -104 340zM494 1124q0 -219 168 -219q163 0 163 219t-166 219t-165 -219zM815 -276l746 2070l284 -47l-747 -2075zM1569 381 q0 221 106 348q117 139 348 139q234 0 351 -143q104 -125 104 -340q0 -221 -106 -348q-117 -139 -349 -139q-233 0 -350 143q-104 125 -104 340zM1858 383q0 -219 165 -219q166 0 166 219t-168 219q-163 0 -163 -219z" />
<glyph unicode="&#x26;" horiz-adv-x="1787" d="M174 412q0 270 291 469q-170 158 -170 350q0 158 100 260q117 121 336 121q174 0 287 -88q133 -102 133 -301q0 -231 -279 -396l281 -276q86 182 154 403h297q-113 -356 -263 -589l355 -365h-381l-146 147q-215 -172 -462 -172q-246 0 -385 109q-147 115 -148 328z M465 428q0 -201 244 -201q145 0 268 111l-344 346q-168 -121 -168 -256zM567 1212q0 -100 127 -211q182 109 183 230q0 49 -35 84q-41 43 -117 43q-158 0 -158 -146z" />
<glyph unicode="'" horiz-adv-x="716" d="M184 1585h348l-38 -772h-271z" />
<glyph unicode="(" horiz-adv-x="1120" d="M225 686q0 662 471 1108l189 -184q-348 -373 -348 -924q0 -549 348 -922l-189 -184q-471 446 -471 1106z" />
<glyph unicode=")" horiz-adv-x="1120" d="M236 -236q348 373 348 924q0 549 -348 922l188 184q471 -446 471 -1106q0 -662 -471 -1108z" />
<glyph unicode="*" horiz-adv-x="1243" d="M154 1169l69 230l281 -88v278h235v-278l281 88l70 -230l-275 -84l174 -237l-184 -135l-182 243l-187 -243l-182 135l176 237z" />
<glyph unicode="+" d="M184 453v270h439v440h270v-440h440v-270h-440v-441h-270v441h-439z" />
<glyph unicode="," horiz-adv-x="886" d="M195 -334q74 219 73 473q0 74 -6 142h379q-16 -305 -215 -615h-231z" />
<glyph unicode="-" horiz-adv-x="1114" d="M164 451v311h786v-311h-786z" />
<glyph unicode="." horiz-adv-x="890" d="M225 197q0 90 66 153q66 66 155 66q90 0 154 -66q66 -63 66 -153t-66 -156q-63 -66 -154 -66q-90 0 -155 66q-66 66 -66 156z" />
<glyph unicode="/" horiz-adv-x="1523" d="M258 -276l746 2070l284 -47l-747 -2075z" />
<glyph unicode="0" horiz-adv-x="1779" d="M143 797q0 336 142 540q188 272 608 273q291 0 473 -137q270 -203 270 -678q0 -385 -178 -594q-190 -225 -569 -226q-359 0 -547 203q-199 209 -199 619zM510 797q0 -524 373 -525q387 0 387 525q0 516 -383 516q-377 0 -377 -516z" />
<glyph unicode="1" horiz-adv-x="876" d="M41 1255v215l631 115v-1585h-330v1278z" />
<glyph unicode="2" horiz-adv-x="1318" d="M113 1475q215 135 495 135q565 0 566 -504q0 -221 -154 -424q-106 -141 -391 -383h547l-48 -299h-1007v256q449 379 581 547q115 141 115 287q0 96 -57 157q-66 66 -180 66q-166 0 -347 -129z" />
<glyph unicode="3" horiz-adv-x="1343" d="M104 1505q221 104 492 105q561 0 561 -404q0 -147 -78 -256q-76 -102 -194 -135q156 -31 239 -133q76 -94 76 -227q0 -201 -141 -332q-160 -147 -455 -148q-289 0 -495 105l120 293q158 -94 351 -94q256 0 256 178q-1 112 -103 153q-94 37 -338 37v293q227 0 316 49 q80 43 80 150q0 166 -230 166q-182 0 -336 -93z" />
<glyph unicode="4" horiz-adv-x="1468" d="M61 317v261l707 1007h350v-981h279l-51 -287h-228v-317h-313v317h-744zM422 604h383v576z" />
<glyph unicode="5" horiz-adv-x="1255" d="M53 74l121 293q158 -94 320 -95q293 0 292 234q0 225 -290 225q-172 0 -344 -35l51 889h891l-54 -299h-553l-16 -272q61 4 127 4q535 0 535 -498q0 -545 -623 -545q-260 0 -457 99z" />
<glyph unicode="6" horiz-adv-x="1458" d="M123 758q0 410 184 626q190 225 557 226q256 0 420 -76l-119 -291q-145 78 -327 78q-346 0 -353 -354q154 84 316 84q242 0 389 -121q166 -139 166 -412q-1 -225 -144 -375q-162 -168 -446 -168q-643 0 -643 783zM475 643q0 -389 277 -389q137 0 202 80q53 63 54 160 q0 128 -74 198q-68 61 -182 62q-162 0 -277 -111z" />
<glyph unicode="7" horiz-adv-x="1185" d="M49 1286l51 299h1035v-219l-607 -1366h-352l600 1286h-727z" />
<glyph unicode="8" horiz-adv-x="1480" d="M123 424q0 289 291 412q-231 127 -232 366q0 185 131 291q143 117 430 117q557 0 557 -406q0 -211 -239 -362q297 -123 297 -422q0 -195 -135 -311q-158 -133 -473 -134q-627 0 -627 449zM469 422q0 -101 82 -154q72 -49 190 -49q127 0 201 60q70 55 70 137 q0 184 -285 291q-258 -109 -258 -285zM528 1202q0 -172 213 -266q211 115 211 258q0 172 -213 172q-211 0 -211 -164z" />
<glyph unicode="9" horiz-adv-x="1458" d="M102 1067q1 225 144 375q162 168 446 168q643 0 643 -783q0 -410 -184 -626q-190 -225 -557 -226q-256 0 -420 76l119 291q145 -78 328 -78q346 0 352 354q-154 -84 -316 -83q-242 0 -387 122q-168 137 -168 410zM451 1092q-1 -129 73 -197q68 -63 183 -64q164 0 276 111 q0 389 -276 389q-137 0 -203 -80q-53 -63 -53 -159z" />
<glyph unicode=":" horiz-adv-x="890" d="M225 197q0 90 66 153q66 66 155 66q90 0 154 -66q66 -63 66 -153t-66 -156q-63 -66 -154 -66q-90 0 -155 66q-66 66 -66 156zM225 1006q0 90 66 153q66 66 155 66q90 0 154 -66q66 -63 66 -153t-66 -156q-63 -66 -154 -66q-90 0 -155 66q-66 66 -66 156z" />
<glyph unicode=";" horiz-adv-x="931" d="M225 -334q74 219 74 473q0 74 -6 142h379q-16 -305 -215 -615h-232zM246 1006q-1 90 65 153q66 66 156 66t154 -66q66 -63 65 -153q0 -90 -65 -156q-63 -66 -154 -66q-90 0 -156 66t-65 156z" />
<glyph unicode="&#x3c;" horiz-adv-x="1558" d="M205 442v308l1149 399v-277l-813 -276l813 -279v-274z" />
<glyph unicode="=" d="M184 240v270h1149v-270h-1149zM184 731v270h1149v-270h-1149z" />
<glyph unicode="&#x3e;" horiz-adv-x="1558" d="M205 43v276l813 277l-813 278v275l1149 -399v-308z" />
<glyph unicode="?" horiz-adv-x="1230" d="M154 1491q176 119 452 119q492 0 492 -434q0 -240 -275 -447q-150 -113 -149 -184v-39h-295v86q0 168 221 317q182 127 182 236q0 186 -215 186q-160 0 -309 -94zM319 180q1 87 60 148q59 59 145 59t148 -59q59 -61 59 -148q0 -86 -59 -145q-61 -59 -148 -60 q-86 0 -145 60q-59 59 -60 145z" />
<glyph unicode="@" horiz-adv-x="2236" d="M215 729q0 381 219 623q250 279 717 278q471 0 692 -246q178 -199 178 -534q0 -260 -139 -426q-141 -168 -371 -168q-169 0 -245 94q-143 -94 -275 -94q-369 0 -368 389q0 231 127 389q141 172 385 172q236 0 434 -88l-101 -500q-8 -41 -8 -75q0 -68 70 -68q96 0 156 84 q66 96 65 275q0 535 -594 534q-338 0 -514 -197q-152 -170 -151 -442q0 -287 163 -459q170 -180 482 -180q305 0 495 131l156 -223q-276 -170 -653 -170q-418 0 -666 235q-254 242 -254 666zM913 659q0 -141 140 -141q63 0 131 35l80 397q-74 27 -144 27q-109 0 -164 -109 q-43 -88 -43 -209z" />
<glyph unicode="A" horiz-adv-x="1667" d="M31 0l663 1585h297l645 -1585h-379l-122 360h-605l-127 -360h-372zM631 643h407l-198 582z" />
<glyph unicode="B" horiz-adv-x="1527" d="M184 37v1515q209 57 557 58q602 0 602 -424q0 -248 -241 -363q283 -78 282 -372q0 -475 -655 -476q-338 0 -545 62zM496 266q79 -24 245 -24h13q311 0 311 225q0 213 -289 213h-280v-414zM496 940h247q281 0 281 215q0 188 -285 188q-152 0 -243 -18v-385z" />
<glyph unicode="C" horiz-adv-x="1650" d="M123 791q0 393 239 610q229 209 625 209q340 0 551 -99l-125 -301q-174 104 -405 105q-238 0 -377 -131q-147 -139 -148 -391q0 -522 551 -523q215 0 373 95l115 -277q-244 -113 -537 -113q-453 0 -674 252q-188 211 -188 564z" />
<glyph unicode="D" horiz-adv-x="1796" d="M184 76v1435q281 98 631 99q494 0 713 -307q145 -207 145 -500q0 -373 -203 -588q-227 -240 -679 -240q-335 1 -607 101zM516 313q141 -41 270 -41q285 1 410 148q111 129 111 393q0 500 -498 500q-147 0 -293 -41v-959z" />
<glyph unicode="E" horiz-adv-x="1357" d="M184 0v1585h1037l-52 -287h-653v-342h606l-51 -286h-555v-383h719l-51 -287h-1000z" />
<glyph unicode="F" horiz-adv-x="1323" d="M184 0v1585h1037l-52 -287h-653v-342h606l-51 -286h-555v-670h-332z" />
<glyph unicode="G" horiz-adv-x="1730" d="M123 797q0 373 223 587q231 225 664 226q334 0 557 -103l-121 -290q-164 98 -424 98q-268 0 -408 -144q-131 -135 -131 -378q0 -522 557 -523q117 0 220 31v320h-293l49 276h534v-817q-229 -104 -565 -105q-451 0 -674 248q-188 213 -188 574z" />
<glyph unicode="H" horiz-adv-x="1746" d="M184 0v1534l332 51v-672h715v621l332 51v-1585h-332v627h-715v-627h-332z" />
<glyph unicode="I" horiz-adv-x="700" d="M184 0v1534l332 51v-1585h-332z" />
<glyph unicode="J" horiz-adv-x="1236" d="M51 74l117 284q135 -86 309 -86q123 0 178 64q66 76 66 270v928l332 51v-997q0 -287 -90 -424q-127 -188 -461 -189q-254 1 -451 99z" />
<glyph unicode="K" horiz-adv-x="1626" d="M184 0v1534l332 51v-721l645 721h369l-680 -770l715 -815h-389l-660 741v-741h-332z" />
<glyph unicode="L" horiz-adv-x="1247" d="M184 0v1534l332 51v-1286h690l-47 -299h-975z" />
<glyph unicode="M" horiz-adv-x="2271" d="M72 0l311 1585h311l385 -1034q45 -121 62 -217q16 96 61 217l385 1034h301l312 -1585h-347l-139 866q-25 145 -31 226q-18 -78 -57 -183l-344 -909h-299l-340 909q-35 92 -57 183q-4 -92 -27 -226l-143 -866h-344z" />
<glyph unicode="N" horiz-adv-x="1789" d="M184 0v1585h412l520 -813q78 -78 174 -303h4v1067l312 49v-1585h-389l-484 739q-119 180 -233 389h-4v-1128h-312z" />
<glyph unicode="O" horiz-adv-x="1886" d="M123 786q0 377 190 588q211 236 635 236q432 0 641 -256q174 -211 174 -555q0 -354 -176 -568q-209 -256 -639 -256q-434 0 -645 248q-180 209 -180 563zM483 797q0 -258 121 -396q117 -135 336 -135t340 133q123 135 123 385q0 535 -459 535q-229 0 -350 -145 q-111 -135 -111 -377z" />
<glyph unicode="P" horiz-adv-x="1542" d="M184 0v1544q268 66 564 66q358 0 524 -127q168 -131 168 -424q0 -272 -183 -424q-182 -152 -499 -152q-135 1 -262 21v-504h-312zM496 809q121 -35 264 -35q344 0 344 285q0 152 -96 211q-84 49 -271 49q-143 0 -241 -25v-485z" />
<glyph unicode="Q" horiz-adv-x="1886" d="M123 786q0 377 190 588q211 236 635 236q432 0 641 -256q174 -211 174 -555q0 -565 -415 -748l278 -114l-184 -259l-512 297q-424 6 -631 252q-176 209 -176 559zM483 797q0 -258 121 -396q117 -135 336 -135t340 133q123 135 123 385q0 535 -459 535q-229 0 -350 -145 q-111 -135 -111 -377z" />
<glyph unicode="R" horiz-adv-x="1642" d="M184 0v1548q211 61 533 62q631 0 631 -484q0 -328 -301 -464l524 -662h-412l-444 610q-90 0 -219 19v-629h-312zM496 901q96 -22 227 -22h12q279 0 279 231q0 207 -279 207q-141 0 -239 -23v-393z" />
<glyph unicode="S" horiz-adv-x="1425" d="M102 117l115 289q221 -147 465 -148q250 0 250 164q0 78 -80 133q-72 49 -287 131q-242 92 -344 195q-104 104 -104 268q0 215 147 334q160 127 467 127q301 0 561 -115l-125 -293q-223 125 -456 125q-244 0 -244 -151q0 -68 70 -117q63 -45 260 -123q268 -109 364 -197 q119 -113 119 -305q0 -217 -147 -336q-156 -123 -445 -123q-350 0 -586 142z" />
<glyph unicode="T" horiz-adv-x="1513" d="M41 1286l51 299h1381l-54 -299h-497v-1286h-332v1286h-549z" />
<glyph unicode="U" horiz-adv-x="1736" d="M184 586v948l332 51v-991q0 -322 352 -322t353 322v940l331 51v-999q0 -295 -176 -453t-508 -158q-323 0 -501 152q-182 158 -183 459z" />
<glyph unicode="V" horiz-adv-x="1617" d="M41 1585h350l340 -1034q66 -199 72 -305h4q18 182 61 305l355 1034h354l-600 -1585h-356z" />
<glyph unicode="W" horiz-adv-x="2514" d="M41 1585h373l237 -930q51 -197 66 -297q14 123 67 293l289 934h393l256 -934q53 -190 68 -291q18 104 68 295l245 930h371l-520 -1585h-324l-313 1020q-47 150 -62 274q-14 -125 -61 -274l-309 -1020h-353z" />
<glyph unicode="X" horiz-adv-x="1718" d="M72 1585h403l385 -543l365 543h399l-590 -784l613 -801h-404l-393 553l-373 -553h-399l598 795z" />
<glyph unicode="Y" horiz-adv-x="1515" d="M20 1585h377l357 -797l368 797h373l-584 -1112v-473h-331v473z" />
<glyph unicode="Z" horiz-adv-x="1470" d="M72 0v221l811 1065h-799l51 299h1168v-260l-777 -1026h852l-53 -299h-1253z" />
<glyph unicode="[" horiz-adv-x="1169" d="M236 -391v2165h643l-39 -218h-342v-1736h395v-211h-657z" />
<glyph unicode="\" horiz-adv-x="1523" d="M258 1747l285 47l745 -2070l-282 -52z" />
<glyph unicode="]" horiz-adv-x="1107" d="M205 1563v211h657v-2165h-643l39 217h342v1737h-395z" />
<glyph unicode="^" horiz-adv-x="1527" d="M246 463l381 1040h274l381 -1040h-283l-235 682l-236 -682h-282z" />
<glyph unicode="_" horiz-adv-x="1191" d="M41 -113h1110v-270h-1110v270z" />
<glyph unicode="`" horiz-adv-x="1312" d="M408 1767h401l215 -383h-281z" />
<glyph unicode="a" horiz-adv-x="1327" d="M82 360q0 172 117 271q128 108 374 108h5q199 0 305 -41v62q0 196 -247 196h-3q-205 0 -389 -102l-115 268q236 100 518 101q330 0 455 -156q88 -111 88 -342v-637q-229 -113 -561 -113q-547 0 -547 385zM385 356q0 -147 248 -147q143 0 250 35v231q-98 35 -262 35 q-236 0 -236 -154z" />
<glyph unicode="b" horiz-adv-x="1447" d="M154 82v1507l317 49v-501q131 86 309 86q268 0 414 -158q141 -154 141 -436q0 -336 -178 -506q-156 -147 -416 -148q-307 0 -587 107zM471 287q98 -37 219 -37q299 0 299 373q0 325 -270 325h-2q-135 0 -246 -94v-567z" />
<glyph unicode="c" horiz-adv-x="1292" d="M113 592q0 334 196 495q164 135 439 136q244 0 454 -99l-117 -280q-168 98 -317 98q-313 0 -313 -352q0 -150 73 -238q80 -96 240 -96q176 0 338 111l104 -252q-205 -139 -462 -140q-338 0 -502 201q-133 160 -133 416z" />
<glyph unicode="d" horiz-adv-x="1447" d="M113 575q0 334 180 502q158 145 414 146q158 0 270 -23v389l317 49v-1638h-264l-39 72q-139 -96 -323 -97q-272 0 -416 160q-139 156 -139 440zM459 575q0 -325 270 -325h2q135 0 246 94v567q-98 37 -219 37q-299 0 -299 -373z" />
<glyph unicode="e" horiz-adv-x="1396" d="M113 594q0 268 133 432q162 197 493 197q283 0 426 -164q125 -143 125 -389q0 -80 -20 -197h-817q18 -123 96 -176t246 -53h3q171 0 351 118l102 -247q-193 -139 -467 -140q-285 0 -456 129q-215 158 -215 490zM451 698h512q0 262 -238 263q-239 -1 -274 -263z" />
<glyph unicode="f" horiz-adv-x="993" d="M20 907v271h179v45q0 440 452 440q197 0 373 -72l-113 -270q-100 68 -221 68q-174 0 -174 -179v-32h311l-49 -271h-262v-907h-317v907h-179z" />
<glyph unicode="g" horiz-adv-x="1437" d="M102 612q0 272 140 432q156 178 460 179q201 0 320 -68l262 41v-1049q0 -585 -571 -585h-2h-5q-284 0 -536 114l117 281q223 -121 413 -121q117 0 174 27q92 45 93 168v92q-141 -88 -318 -88q-547 0 -547 577zM444 618q0 -305 273 -305q137 0 250 86v516q-96 33 -219 33 q-303 0 -304 -330z" />
<glyph unicode="h" horiz-adv-x="1429" d="M154 0v1589l317 49v-493q145 78 326 78q496 0 495 -496v-727h-317v680q0 268 -258 268q-131 0 -246 -71v-877h-317z" />
<glyph unicode="i" horiz-adv-x="624" d="M109 1505q0 85 59 144q61 59 143 59q84 0 144 -59q59 -59 59 -144q0 -82 -59 -143q-59 -59 -144 -59q-82 0 -143 59q-59 61 -59 143zM154 0v1149l317 49v-1198h-317z" />
<glyph unicode="j" horiz-adv-x="800" d="M-133 -362l104 251q96 -53 181 -53q164 0 163 178v1135l318 49v-1178q0 -211 -105 -329q-115 -129 -335 -129q-215 0 -326 76zM270 1505q1 85 60 144q61 59 143 59q84 0 143 -59t60 -144q0 -82 -60 -143q-59 -59 -143 -59q-82 0 -143 59q-59 61 -60 143z" />
<glyph unicode="k" horiz-adv-x="1300" d="M154 0v1589l317 49v-878l399 438h400l-551 -561l561 -637h-410l-399 487v-487h-317z" />
<glyph unicode="l" horiz-adv-x="624" d="M154 0v1589l317 49v-1638h-317z" />
<glyph unicode="m" horiz-adv-x="2205" d="M154 0v1149l317 49v-72q143 96 328 97q266 0 385 -162q182 162 413 162q471 0 471 -492v-731h-317v670q0 278 -229 278h-2q-139 0 -258 -102q8 -74 8 -115v-731h-318v670q0 278 -227 278h-2q-139 0 -252 -96v-852h-317z" />
<glyph unicode="n" horiz-adv-x="1449" d="M154 0v1149l317 49v-61q156 86 336 86q506 0 506 -500v-723h-318v657q0 291 -258 291q-143 0 -266 -90v-858h-317z" />
<glyph unicode="o" horiz-adv-x="1513" d="M254 1024q170 199 502 199q346 0 514 -209q131 -162 131 -412q0 -272 -148 -438q-168 -188 -497 -189q-312 0 -482 172q-161 163 -161 451q0 262 141 426zM455 602q0 -352 299 -352q301 0 301 352q0 174 -88 266q-80 80 -213 80q-131 0 -211 -82q-88 -90 -88 -264z" />
<glyph unicode="p" horiz-adv-x="1447" d="M154 -414v1563l317 49v-72q145 96 309 97q268 0 414 -158q141 -154 141 -436q0 -336 -178 -506q-156 -147 -416 -148q-156 0 -270 21v-410h-317zM471 287q98 -37 219 -37q299 0 299 373q0 325 -270 325h-2q-135 0 -246 -94v-567z" />
<glyph unicode="q" horiz-adv-x="1437" d="M113 571q0 328 172 498q156 154 422 154q205 0 395 -56l192 31v-1612h-317v475q-135 -86 -309 -86q-264 0 -408 152q-147 154 -147 444zM459 578q0 -328 272 -328q135 0 246 94v567q-98 37 -219 37q-299 0 -299 -370z" />
<glyph unicode="r" horiz-adv-x="1067" d="M154 0v1149l317 49v-92q133 117 279 117q113 0 286 -74l-112 -270q-117 69 -189 69h-2q-133 0 -262 -153v-795h-317z" />
<glyph unicode="s" horiz-adv-x="1134" d="M57 96l101 238q154 -92 356 -92q197 0 197 100q0 49 -39 74q-33 23 -162 65q-225 74 -313 160q-88 84 -88 221q0 160 112 254q127 106 381 107q250 0 412 -76l-119 -281q-147 88 -309 88q-145 0 -146 -90q0 -45 54 -76q37 -20 206 -81q180 -66 244 -125q88 -84 88 -246 q0 -160 -119 -256q-131 -104 -374 -105q-315 0 -482 121z" />
<glyph unicode="t" horiz-adv-x="1038" d="M72 907v271h219v309l317 49v-358h353l-50 -271h-303v-479q0 -88 21 -125q31 -53 119 -53q92 0 184 53l96 -235q-137 -92 -356 -93q-209 0 -299 97q-82 86 -82 274v561h-219z" />
<glyph unicode="u" horiz-adv-x="1445" d="M133 475v676l318 47v-657q0 -291 258 -291q141 0 266 88v813l317 47v-1198h-260l-41 70q-158 -94 -352 -95q-506 0 -506 500z" />
<glyph unicode="v" horiz-adv-x="1355" d="M31 1198h368l219 -676q51 -156 80 -311q23 162 72 321l201 666h354l-463 -1198h-346z" />
<glyph unicode="w" horiz-adv-x="2050" d="M41 1198h356l162 -709q29 -129 47 -266q16 129 58 269l210 706h324l203 -711q41 -139 57 -268q18 137 47 266l168 713h336l-377 -1198h-366l-193 676q-33 113 -49 201q-16 -88 -49 -201l-191 -676h-364z" />
<glyph unicode="x" horiz-adv-x="1351" d="M20 0l457 600l-446 598h381l270 -391l287 391h362l-479 -618l434 -580h-381l-258 371l-264 -371h-363z" />
<glyph unicode="y" horiz-adv-x="1368" d="M72 -373l106 258q84 -49 178 -49q131 0 199 154l8 18l-489 1190h366l289 -827l279 827h329l-481 -1216q-86 -221 -182 -312q-116 -108 -310 -108h-4h-5q-179 0 -283 65z" />
<glyph unicode="z" horiz-adv-x="1232" d="M72 928l51 270h987v-248l-608 -676h659l-49 -274h-1010v227l625 701h-655z" />
<glyph unicode="{" horiz-adv-x="1075" d="M113 567v226q127 8 170 79q31 51 30 172v314q0 240 113 325q113 88 424 91l-41 -220q-139 0 -191 -47q-43 -39 -43 -137v-299q0 -152 -24 -227q-35 -111 -139 -164q104 -53 139 -166q25 -76 24 -227v-297q0 -98 43 -137q51 -47 191 -48v-219q-305 2 -403 90 q-92 82 -93 326v311q0 121 -30 172q-43 74 -170 82z" />
<glyph unicode="|" horiz-adv-x="796" d="M266 -414v2188h264v-2188h-264z" />
<glyph unicode="}" horiz-adv-x="1075" d="M225 -414l41 219q139 0 191 48q43 39 43 137v299q0 152 24 227q35 111 140 164q-104 53 -140 166q-25 76 -24 227v297q0 98 -43 137q-51 47 -191 47v220q305 -2 404 -91q92 -82 92 -325v-311q0 -121 31 -173q43 -74 170 -81v-226q-127 -8 -170 -80q-31 -51 -31 -172v-313 q0 -240 -113 -326q-113 -88 -424 -90z" />
<glyph unicode="~" horiz-adv-x="1409" d="M184 825q164 182 303 183q90 0 218 -64q125 -66 186 -65q98 0 260 182l74 -301q-164 -182 -303 -182q-88 0 -217 65q-127 63 -187 64q-100 0 -260 -183z" />
<glyph unicode="&#xa2;" horiz-adv-x="1456" d="M225 592q0 317 178 481q150 135 408 148l72 333l274 -53l-65 -303q111 -27 223 -74l-117 -280q-88 51 -168 74l-143 -662q178 4 332 111l104 -252q-195 -139 -463 -140l-33 2l-61 -286l-274 55l61 285q-328 137 -328 561zM567 590q1 -135 60 -219l118 549 q-178 -66 -178 -330z" />
<glyph unicode="&#xa3;" horiz-adv-x="1443" d="M164 0v215q121 0 170 92q41 80 41 271v51h-182v235h182v221q0 524 485 525q201 0 400 -117l-119 -281q-180 123 -287 123q-113 0 -154 -78q-29 -55 -28 -180v-213h340l-43 -235h-297q-2 -229 -49 -353h598l-43 -276h-1014z" />
<glyph unicode="&#xa5;" horiz-adv-x="1556" d="M82 1585h377l270 -653q31 -74 41 -166h4q12 88 47 166l281 653h373l-424 -835h133l-43 -236h-209v-78h252l-43 -235h-209v-201h-332v201h-235v235h235v78h-235v236h120z" />
<glyph unicode="&#xa7;" horiz-adv-x="1355" d="M225 676q0 217 224 307q-137 104 -138 254q0 154 107 246q121 104 358 104q211 0 375 -98l-115 -221q-127 80 -274 80q-172 0 -172 -111q0 -74 184 -154q215 -92 297 -170q80 -80 80 -196q0 -221 -225 -307q145 -109 145 -273q0 -362 -467 -362q-211 0 -375 98l115 221 q125 -80 277 -80q180 0 180 115q0 49 -31 80q-41 43 -164 98q-221 96 -303 178q-78 76 -78 191zM502 705q0 -82 174 -162q199 25 198 147q0 80 -178 158q-195 -25 -194 -143z" />
<glyph unicode="&#xa9;" horiz-adv-x="2377" d="M287 774q0 398 264 656q258 248 639 247q379 0 635 -247q266 -258 266 -656q0 -397 -266 -651q-256 -246 -635 -246q-383 0 -639 246q-264 252 -264 651zM580 774q0 -285 174 -457q170 -170 436 -170t438 170q176 174 176 457q0 285 -176 461q-172 170 -438 170 t-436 -170q-174 -176 -174 -461zM713 780q0 258 151 383q127 104 340 105q164 0 350 -76l-94 -227q-127 74 -239 73q-231 0 -232 -260q0 -246 232 -246q139 0 258 84l82 -204q-147 -106 -357 -107q-260 0 -387 154q-104 125 -104 321z" />
<glyph unicode="&#xaa;" horiz-adv-x="1202" d="M174 866q0 131 88 207q96 82 283 82q109 0 190 -20v12q0 115 -151 115q-136 0 -283 -84l-102 235q193 80 395 80q246 0 338 -117q66 -82 65 -256v-463q-180 -84 -415 -84q-408 0 -408 293zM436 862q0 -78 148 -78q92 0 151 17v131q-57 16 -160 16q-139 0 -139 -86z" />
<glyph unicode="&#xac;" horiz-adv-x="1476" d="M184 707v270h1108v-707h-317v437h-791z" />
<glyph unicode="&#xae;" horiz-adv-x="1376" d="M154 1092q-1 243 155 393q150 141 379 141q233 0 379 -133q156 -145 156 -401q0 -252 -164 -400q-150 -135 -371 -135t-371 135q-164 147 -163 400zM340 1092q0 -171 100 -269q94 -92 248 -92t248 92q100 98 100 269q0 172 -100 270q-92 90 -248 90t-248 -90 q-100 -98 -100 -270zM481 874v449q98 27 201 27q205 0 205 -156q0 -102 -82 -141l127 -179h-170l-107 162q-16 0 -28 2v-164h-146zM627 1149q29 -4 39 -4q66 0 65 45q0 47 -59 47q-29 0 -45 -6v-82z" />
<glyph unicode="&#xb0;" horiz-adv-x="1105" d="M143 1255q0 180 119 299q117 113 289 113t291 -113q121 -119 121 -299t-121 -294q-117 -113 -291 -113q-172 0 -289 113q-119 115 -119 294zM397 1255q0 -153 154 -153q156 0 156 153q0 74 -45 115q-43 41 -111 41t-109 -41q-45 -41 -45 -115z" />
<glyph unicode="&#xb1;" d="M184 0v270h1149v-270h-1149zM184 678v270h439v350h270v-350h440v-270h-440v-350h-270v350h-439z" />
<glyph unicode="&#xb5;" horiz-adv-x="1710" d="M236 -414v1565l317 47v-700q0 -248 244 -248q141 0 219 88q61 70 61 162v651l318 47v-825q0 -98 88 -99q55 0 90 11l4 -275q-96 -35 -170 -35q-211 0 -256 183h-4q-74 -182 -350 -183q-186 0 -240 62h-4v-451h-317z" />
<glyph unicode="&#xb6;" horiz-adv-x="1445" d="M225 1098q0 295 181 434q152 119 417 119q244 0 398 -43v-2022h-230v1794h-96v-1794h-233v985q-197 45 -312 179q-125 141 -125 348z" />
<glyph unicode="&#xb7;" horiz-adv-x="911" d="M236 672q-1 90 65 153q66 66 156 66t153 -66q66 -63 66 -153t-66 -156q-63 -66 -153 -65q-90 0 -156 65q-66 66 -65 156z" />
<glyph unicode="&#xba;" horiz-adv-x="1380" d="M195 1016q0 197 110 325q129 152 385 152q268 0 395 -160q100 -125 101 -317q0 -209 -113 -336q-129 -145 -383 -145q-240 0 -371 131q-125 127 -124 350zM494 1016q0 -233 196 -234q195 1 195 234q0 229 -195 229q-197 0 -196 -229z" />
<glyph unicode="&#xf7;" d="M184 514v270h1149v-270h-1149zM537 197q-1 90 65 153q66 66 156 66t153 -66q66 -63 66 -153t-66 -156q-63 -66 -153 -66t-156 66t-65 156zM537 1108q-1 91 65 154q66 66 156 65q90 0 153 -65q66 -63 66 -154q0 -90 -66 -156q-63 -66 -153 -65q-90 0 -156 65 q-66 66 -65 156z" />
<glyph unicode="&#x192;" horiz-adv-x="1751" d="M123 -350l117 284q121 -92 223 -92q100 0 147 82q31 51 47 166l84 572h-217v235h248l39 240q76 473 494 473q143 0 323 -88l-117 -283q-98 90 -215 90q-104 0 -153 -76q-31 -51 -49 -166l-29 -190h274l-43 -235h-262l-92 -623q-70 -475 -498 -475q-145 0 -321 86z" />
<glyph unicode="&#x3a9;" horiz-adv-x="1894" d="M184 0v299h346v43q-326 121 -325 578q0 319 219 510q205 178 518 178q322 0 528 -181q215 -188 216 -507q0 -451 -326 -578v-43h350l-45 -299h-621v451q145 41 228 157q82 115 82 277q0 203 -119 323q-113 113 -289 113q-180 0 -293 -117q-115 -119 -114 -319 q0 -180 96 -299q82 -100 213 -135v-451h-664z" />
<glyph unicode="&#x3c0;" horiz-adv-x="1677" d="M154 915v283h1431l-51 -283h-213v-575q0 -94 76 -94q37 0 80 20l96 -237q-94 -53 -209 -54q-324 0 -324 330v610h-364l-119 -915h-305l133 915h-231z" />
<glyph unicode="&#x401;" horiz-adv-x="1409" d="M184 0v1585h1037l-52 -287h-653v-342h606l-51 -286h-555v-383h719l-51 -287h-1000zM266 1898q0 72 51 123q53 51 123 52q72 0 123 -52q51 -51 51 -123q0 -70 -51 -122q-51 -51 -123 -52q-70 0 -123 52q-51 53 -51 122zM811 1898q0 72 51 123q53 51 123 52q72 0 123 -52 q51 -51 51 -123q0 -70 -51 -122q-51 -51 -123 -52q-70 0 -123 52q-51 53 -51 122z" />
<glyph unicode="&#x410;" horiz-adv-x="1667" d="M31 0l663 1585h297l645 -1585h-379l-122 360h-605l-127 -360h-372zM631 643h407l-198 582z" />
<glyph unicode="&#x411;" horiz-adv-x="1542" d="M184 39v1546h1106l-53 -299h-721v-311q109 16 217 16q303 0 477 -135q174 -137 174 -375q0 -260 -161 -383q-160 -123 -500 -123q-291 0 -539 64zM516 270q92 -16 197 -16q350 0 350 227q0 231 -328 232q-100 0 -219 -25v-418z" />
<glyph unicode="&#x412;" horiz-adv-x="1527" d="M184 37v1515q209 57 557 58q602 0 602 -424q0 -248 -241 -363q283 -78 282 -372q0 -475 -655 -476q-338 0 -545 62zM496 266q82 -25 258 -24q311 0 311 225q0 213 -289 213h-280v-414zM496 940h247q281 0 281 215q0 188 -285 188q-152 0 -243 -18v-385z" />
<glyph unicode="&#x413;" horiz-adv-x="1290" d="M184 0v1585h1065l-53 -299h-680v-1286h-332z" />
<glyph unicode="&#x414;" horiz-adv-x="1761" d="M0 287q270 0 315 248l95 516q47 256 178 385q156 150 448 149h482v-1298h182v-656l-311 -49v418h-1078v-369l-311 -49v705zM535 287h651v1005h-168q-141 0 -213 -104q-51 -78 -88 -260l-88 -453q-23 -104 -94 -188z" />
<glyph unicode="&#x415;" horiz-adv-x="1337" d="M184 0v1585h1037l-52 -287h-653v-342h606l-51 -286h-555v-383h719l-51 -287h-1000z" />
<glyph unicode="&#x416;" horiz-adv-x="2347" d="M61 0l277 588q84 182 270 235q-145 74 -233 242l-271 520h369l213 -432q94 -193 238 -192h84v573l331 51v-624h84q143 0 238 192l213 432h369l-271 -520q-88 -168 -233 -242q186 -53 270 -235l277 -588h-381l-211 475q-88 199 -271 199h-84v-674h-331v674h-84 q-182 0 -271 -199l-211 -475h-381z" />
<glyph unicode="&#x417;" horiz-adv-x="1460" d="M113 88l114 258q164 -98 457 -98h6q307 0 307 215q0 195 -262 203h-307l47 286h242q240 8 239 201q0 180 -286 180q-229 0 -428 -119l-115 265q281 131 543 131q307 -2 473 -107q174 -109 174 -317q0 -229 -283 -363q152 -41 242 -149q82 -102 82 -223q0 -221 -170 -345 q-176 -127 -504 -131q-328 0 -571 113z" />
<glyph unicode="&#x418;" horiz-adv-x="1789" d="M184 0v1536l312 49v-1157q63 131 178 313l520 844h412v-1585h-312v1180q-76 -152 -237 -410l-484 -770h-389z" />
<glyph unicode="&#x419;" horiz-adv-x="1789" d="M184 0v1536l312 49v-1157q63 131 178 313l520 844h412v-1585h-312v1180q-76 -152 -237 -410l-484 -770h-389zM508 2071l213 49q41 -133 174 -133t174 133l213 -49q-25 -162 -131 -256q-106 -90 -256 -91q-150 1 -254 91q-109 94 -133 256z" />
<glyph unicode="&#x41a;" horiz-adv-x="1585" d="M184 0v1534l332 51v-624h146q141 0 247 213l203 411h369l-264 -508q-90 -174 -240 -254q186 -55 270 -235l277 -588h-381l-211 475q-90 199 -270 199h-146v-674h-332z" />
<glyph unicode="&#x41b;" horiz-adv-x="1746" d="M61 246q233 45 256 248l64 557q29 256 151 385q145 150 439 149h592v-1585h-332v1292h-258q-141 0 -205 -104q-45 -76 -70 -260l-63 -494q-51 -389 -529 -459z" />
<glyph unicode="&#x41c;" horiz-adv-x="2271" d="M72 0l311 1585h311l385 -1034q45 -121 62 -217q16 96 61 217l385 1034h301l312 -1585h-347l-139 866q-25 145 -31 226q-18 -78 -57 -183l-344 -909h-299l-340 909q-35 92 -57 183q-4 -92 -27 -226l-143 -866h-344z" />
<glyph unicode="&#x41d;" horiz-adv-x="1746" d="M184 0v1534l332 51v-672h715v621l332 51v-1585h-332v627h-715v-627h-332z" />
<glyph unicode="&#x41e;" horiz-adv-x="1886" d="M123 786q0 377 190 588q211 236 635 236q432 0 641 -256q174 -211 174 -555q0 -354 -176 -568q-209 -256 -639 -256q-434 0 -645 248q-180 209 -180 563zM483 797q0 -258 121 -396q117 -135 336 -135t340 133q123 135 123 385q0 535 -459 535q-229 0 -350 -145 q-111 -135 -111 -377z" />
<glyph unicode="&#x41f;" horiz-adv-x="1726" d="M184 0v1585h1358v-1585h-332v1298h-694v-1298h-332z" />
<glyph unicode="&#x420;" horiz-adv-x="1542" d="M184 0v1544q268 66 564 66q358 0 524 -127q168 -131 168 -424q0 -272 -183 -424q-182 -152 -499 -152q-135 1 -262 21v-504h-312zM496 809q121 -35 264 -35q344 0 344 285q0 152 -96 211q-84 49 -271 49q-143 0 -241 -25v-485z" />
<glyph unicode="&#x421;" horiz-adv-x="1650" d="M123 791q0 393 239 610q229 209 625 209q340 0 551 -99l-125 -301q-174 104 -405 105q-238 0 -377 -131q-147 -139 -148 -391q0 -522 551 -523q215 0 373 95l115 -277q-244 -113 -537 -113q-453 0 -674 252q-188 211 -188 564z" />
<glyph unicode="&#x422;" horiz-adv-x="1513" d="M41 1286l51 299h1381l-54 -299h-497v-1286h-332v1286h-549z" />
<glyph unicode="&#x423;" horiz-adv-x="1511" d="M61 1585h361l266 -545q100 -203 141 -354q20 121 101 354l182 545h358l-438 -1165q-168 -444 -504 -445q-213 0 -419 109l127 274q135 -98 253 -98q106 0 154 148z" />
<glyph unicode="&#x424;" horiz-adv-x="1970" d="M82 791q0 301 205 479q197 172 510 172h22v141l332 51v-192h23q313 0 509 -172q205 -178 205 -479q0 -240 -176 -422q-201 -209 -528 -209h-33v-160h-332v160h-33q-328 0 -528 209q-176 182 -176 422zM422 797q0 -188 123 -303q109 -100 254 -101h20v815h-12 q-152 0 -264 -108q-121 -117 -121 -303zM1151 393h20q145 0 254 101q123 115 123 303q0 186 -121 303q-113 109 -264 108h-12v-815z" />
<glyph unicode="&#x425;" horiz-adv-x="1718" d="M72 1585h403l385 -543l365 543h399l-590 -784l613 -801h-404l-393 553l-373 -553h-399l598 795z" />
<glyph unicode="&#x426;" horiz-adv-x="1792" d="M184 0v1534l332 51v-1298h674v1247l332 51v-1298h209v-656l-312 -49v418h-1235z" />
<glyph unicode="&#x427;" horiz-adv-x="1558" d="M102 1100v434l332 51v-485q0 -152 78 -219q76 -66 246 -66q164 0 284 35v684l332 51v-1585h-332v553q-176 -29 -282 -29q-315 0 -488 152q-170 150 -170 424z" />
<glyph unicode="&#x428;" horiz-adv-x="2363" d="M184 0v1534l332 51v-1298h490v1247l331 51v-1298h490v1247l332 51v-1585h-1975z" />
<glyph unicode="&#x429;" horiz-adv-x="2428" d="M184 0v1534l332 51v-1298h490v1247l331 51v-1298h490v1247l332 51v-1298h208v-656l-311 -49v418h-1872z" />
<glyph unicode="&#x42a;" horiz-adv-x="1771" d="M41 1286l51 299h709v-610q109 16 217 16q303 0 477 -135q174 -137 174 -375q0 -260 -162 -383q-160 -123 -499 -123q-291 0 -539 64v1247h-428zM801 270q92 -16 196 -16q350 0 351 227q0 231 -328 232q-100 0 -219 -25v-418z" />
<glyph unicode="&#x42b;" horiz-adv-x="2058" d="M184 39v1497l332 49v-610q109 16 217 16q303 0 477 -135q174 -137 174 -375q0 -260 -161 -383q-160 -123 -500 -123q-291 0 -539 64zM516 270q92 -16 197 -16q350 0 350 227q0 231 -328 232q-100 0 -219 -25v-418zM1542 0v1534l332 51v-1585h-332z" />
<glyph unicode="&#x42c;" horiz-adv-x="1486" d="M184 39v1497l332 49v-610q109 16 217 16q303 0 477 -135q174 -137 174 -375q0 -260 -161 -383q-160 -123 -500 -123q-291 0 -539 64zM516 270q92 -16 197 -16q350 0 350 227q0 231 -328 232q-100 0 -219 -25v-418z" />
<glyph unicode="&#x42d;" horiz-adv-x="1650" d="M113 1511q211 98 551 99q395 0 624 -209q240 -217 240 -610q0 -352 -189 -564q-221 -252 -673 -252q-293 0 -537 113l115 277q158 -94 372 -95q473 0 539 385h-659l47 287h608q-39 180 -176 279q-133 94 -332 94q-231 0 -405 -105z" />
<glyph unicode="&#x42e;" horiz-adv-x="2451" d="M184 0v1534l332 51v-643h262q80 668 776 668q410 0 609 -256q166 -211 166 -555q0 -354 -168 -568q-199 -256 -607 -256q-371 0 -573 203q-172 172 -205 477h-260v-655h-332zM1130 797q0 -260 109 -396q106 -135 307 -135t312 133q111 135 110 385q0 535 -418 535 q-209 0 -317 -145q-102 -135 -103 -377z" />
<glyph unicode="&#x42f;" horiz-adv-x="1542" d="M20 0l216 455q84 174 237 245q-289 104 -289 404q0 260 162 383q160 123 500 123q291 0 538 -64v-1546h-331v602h-219q-188 0 -269 -184l-184 -418h-361zM506 1104q0 -231 328 -232h219v443q-92 16 -197 16q-350 0 -350 -227z" />
<glyph unicode="&#x430;" horiz-adv-x="1327" d="M82 360q0 172 117 271q129 109 379 108q199 0 305 -41v62q0 197 -250 196q-205 0 -389 -102l-115 268q236 100 518 101q330 0 455 -156q88 -111 88 -342v-637q-229 -113 -561 -113q-547 0 -547 385zM385 356q0 -147 248 -147q143 0 250 35v231q-98 35 -262 35 q-236 0 -236 -154z" />
<glyph unicode="&#x431;" horiz-adv-x="1515" d="M113 641q0 553 147 772q127 188 453 225l538 60v-293l-407 -39q-217 -20 -316 -104q-92 -82 -131 -271q133 150 361 150q346 0 514 -195q131 -152 131 -385q0 -256 -148 -409q-168 -176 -497 -177q-299 0 -467 168q-178 174 -178 498zM457 561q0 -147 94 -233 q86 -78 205 -78q127 0 209 78q92 84 92 233q0 143 -88 227q-84 78 -213 78q-127 0 -211 -80q-88 -84 -88 -225z" />
<glyph unicode="&#x432;" horiz-adv-x="1396" d="M154 90v1053q254 80 522 80q598 0 598 -322q0 -184 -199 -276q240 -70 240 -271q0 -158 -150 -260q-170 -119 -481 -119t-530 115zM451 260q145 -39 288 -39q209 0 209 125q0 141 -180 141h-317v-227zM451 713h262q197 0 196 143q0 119 -194 119q-133 0 -264 -43v-219z " />
<glyph unicode="&#x433;" horiz-adv-x="1153" d="M154 0v1198h958l-49 -270h-592v-928h-317z" />
<glyph unicode="&#x434;" horiz-adv-x="1599" d="M70 270h8q88 2 153 72q59 63 70 139l41 307q27 199 123 295q119 115 373 115h493v-928h176v-610l-297 -47v387h-843v-340l-297 -47v657zM512 270h502v658h-154q-111 0 -162 -70q-37 -51 -55 -170l-37 -235q-18 -98 -94 -183z" />
<glyph unicode="&#x435;" horiz-adv-x="1396" d="M113 594q0 268 133 432q162 197 493 197q283 0 426 -164q125 -143 125 -389q0 -80 -20 -197h-817q18 -123 96 -176t246 -53q172 -1 354 118l102 -247q-193 -139 -467 -140q-285 0 -456 129q-215 158 -215 490zM451 698h512q0 262 -238 263q-239 -1 -274 -263z" />
<glyph unicode="&#x436;" horiz-adv-x="1804" d="M41 0l201 422q76 160 217 203q-125 61 -185 182l-198 391h344l121 -283q70 -160 200 -159h13v393l297 49v-442h12q131 0 201 159l120 283h345l-199 -391q-59 -121 -184 -182q141 -43 217 -203l200 -422h-348l-139 340q-59 139 -213 145h-12v-485h-297v485h-13 q-154 -6 -213 -145l-139 -340h-348z" />
<glyph unicode="&#x437;" horiz-adv-x="1304" d="M61 90l138 240q203 -88 448 -88q209 0 209 114q0 111 -201 111h-194v266h160q113 0 155 27q41 27 41 96q0 119 -194 119q-178 0 -375 -68l-115 234q260 82 451 82q598 0 598 -322q0 -184 -199 -276q240 -70 240 -271q0 -158 -150 -260q-170 -119 -481 -119t-531 115z" />
<glyph unicode="&#x438;" horiz-adv-x="1466" d="M154 0v1149l317 49v-776q55 98 119 188l405 588h318v-1198h-318v764q-47 -86 -98 -158l-426 -606h-317z" />
<glyph unicode="&#x439;" horiz-adv-x="1466" d="M154 0v1149l317 49v-776q55 98 119 188l405 588h318v-1198h-318v764q-47 -86 -98 -158l-426 -606h-317zM346 1675l213 49q41 -133 174 -133t174 133l213 -49q-25 -162 -131 -256q-106 -90 -256 -90t-254 90q-109 94 -133 256z" />
<glyph unicode="&#x43a;" horiz-adv-x="1337" d="M154 0v1149l317 49v-442h123q135 0 203 159l121 283h344l-197 -387q-66 -125 -186 -186q152 -63 206 -183l211 -442h-348l-139 340q-59 145 -205 145h-133v-485h-317z" />
<glyph unicode="&#x43b;" horiz-adv-x="1484" d="M41 225q102 20 152 66q53 51 69 164l49 333q29 201 125 295q119 115 371 115h493v-1198h-317v928h-154q-111 0 -161 -70q-37 -51 -56 -170l-49 -309q-31 -188 -145 -285q-111 -90 -326 -119z" />
<glyph unicode="&#x43c;" horiz-adv-x="1742" d="M31 0l276 1198h273l229 -690q37 -109 68 -250q20 113 67 250l230 690h264l274 -1198h-305l-90 477q-25 125 -35 221q-18 -96 -61 -219l-158 -479h-377l-158 481q-39 117 -61 213q-10 -94 -33 -215l-92 -479h-311z" />
<glyph unicode="&#x43d;" horiz-adv-x="1466" d="M154 0v1149l317 49v-450h524v401l318 49v-1198h-318v477h-524v-477h-317z" />
<glyph unicode="&#x43e;" horiz-adv-x="1513" d="M113 602q0 258 141 422q170 199 502 199q346 0 514 -209q131 -162 131 -412q0 -272 -148 -438q-168 -188 -497 -189q-312 0 -482 172q-162 164 -161 455zM455 602q0 -352 299 -352q301 0 301 352q0 174 -88 266q-80 80 -213 80q-131 0 -211 -82q-88 -90 -88 -264z" />
<glyph unicode="&#x43f;" horiz-adv-x="1466" d="M154 0v1198h1159v-1198h-318v928h-524v-928h-317z" />
<glyph unicode="&#x440;" horiz-adv-x="1447" d="M154 -414v1563l317 49v-72q145 96 309 97q268 0 414 -158q141 -154 141 -436q0 -336 -178 -506q-156 -147 -416 -148q-156 0 -270 21v-410h-317zM471 287q98 -37 219 -37q299 0 299 373q0 326 -272 325q-135 0 -246 -94v-567z" />
<glyph unicode="&#x441;" horiz-adv-x="1292" d="M113 592q0 334 196 495q164 135 439 136q244 0 454 -99l-117 -280q-168 98 -317 98q-313 0 -313 -352q0 -150 73 -238q80 -96 240 -96q176 0 338 111l104 -252q-205 -139 -462 -140q-338 0 -502 201q-133 160 -133 416z" />
<glyph unicode="&#x442;" horiz-adv-x="1204" d="M51 928l49 270h1053l-49 -270h-348v-928h-318v928h-387z" />
<glyph unicode="&#x443;" horiz-adv-x="1368" d="M72 -373l106 258q84 -49 178 -49q131 0 199 154l8 18l-489 1190h366l289 -827l279 827h329l-481 -1216q-86 -221 -182 -312q-117 -109 -314 -108q-182 -1 -288 65z" />
<glyph unicode="&#x444;" horiz-adv-x="1951" d="M82 592q0 334 211 495q174 135 465 136h59v366l318 49v-415h59q291 0 465 -136q211 -162 211 -495q0 -252 -148 -416q-178 -201 -528 -201h-59v-389h-318v389h-59q-350 0 -529 201q-147 164 -147 416zM414 590q0 -143 96 -242q98 -102 248 -102h59v706h-59 q-133 0 -228 -78q-117 -98 -116 -284zM1135 246h59q150 0 248 102q96 98 96 242q0 186 -117 284q-94 78 -227 78h-59v-706z" />
<glyph unicode="&#x445;" horiz-adv-x="1351" d="M20 0l457 600l-446 598h381l270 -391l287 391h362l-479 -618l434 -580h-381l-258 371l-264 -371h-363z" />
<glyph unicode="&#x446;" horiz-adv-x="1589" d="M154 0v1149l317 49v-928h524v879l318 49v-928h194v-610l-297 -47v387h-1056z" />
<glyph unicode="&#x447;" horiz-adv-x="1429" d="M154 881v268l317 49v-270q0 -139 49 -201q53 -68 178 -68q172 0 277 52v438l317 49v-1198h-317v436q-137 -51 -357 -51q-465 0 -464 496z" />
<glyph unicode="&#x448;" horiz-adv-x="2062" d="M154 0v1149l317 49v-928h401v879l318 49v-928h401v879l318 49v-1198h-1755z" />
<glyph unicode="&#x449;" horiz-adv-x="2185" d="M154 0v1149l317 49v-928h401v879l318 49v-928h401v879l318 49v-928h194v-610l-297 -47v387h-1652z" />
<glyph unicode="&#x44a;" horiz-adv-x="1536" d="M31 928l49 270h614v-500q104 41 295 41q256 0 387 -108q119 -98 119 -271q0 -385 -557 -385q-336 0 -561 113v840h-346zM694 244q102 -35 240 -35q248 0 248 147q0 154 -236 154q-156 0 -252 -35v-231z" />
<glyph unicode="&#x44b;" horiz-adv-x="1873" d="M154 88v1061l317 49v-500q104 41 295 41q256 0 387 -108q119 -98 119 -271q0 -385 -557 -385q-336 0 -561 113zM471 244q102 -35 240 -35q248 0 247 147q0 154 -235 154q-156 0 -252 -35v-231zM1403 0v1149l317 49v-1198h-317z" />
<glyph unicode="&#x44c;" horiz-adv-x="1312" d="M154 88v1061l317 49v-500q104 41 295 41q256 0 387 -108q119 -98 119 -271q0 -385 -557 -385q-336 0 -561 113zM471 244q102 -35 240 -35q248 0 247 147q0 154 -235 154q-156 0 -252 -35v-231z" />
<glyph unicode="&#x44d;" horiz-adv-x="1292" d="M113 115l104 252q162 -111 338 -111q252 0 303 229h-467l39 226h428q-51 231 -303 231q-150 0 -317 -98l-117 280q213 98 454 99q274 0 439 -136q197 -162 196 -495q0 -256 -133 -416q-164 -201 -502 -201q-257 1 -462 140z" />
<glyph unicode="&#x44e;" horiz-adv-x="1943" d="M154 0v1149l317 49v-450h166q37 207 168 329q156 145 422 146q324 0 481 -209q123 -162 123 -412q0 -272 -137 -438q-158 -188 -467 -189q-258 0 -414 136q-150 131 -180 366h-162v-477h-317zM967 602q0 -352 258 -352q260 0 260 352q0 174 -76 266q-70 80 -184 80 q-115 0 -183 -82q-76 -90 -75 -264z" />
<glyph unicode="&#x44f;" horiz-adv-x="1441" d="M61 0l179 375q57 119 161 164q-211 98 -211 299q0 385 558 385q324 0 540 -113v-1110h-317v459h-215q-135 0 -201 -140l-149 -319h-345zM504 842q0 -154 235 -154h232v266q-92 35 -219 35q-248 0 -248 -147z" />
<glyph unicode="&#x451;" horiz-adv-x="1396" d="M113 594q0 268 133 432q162 197 493 197q283 0 426 -164q125 -143 125 -389q0 -80 -20 -197h-817q18 -123 96 -176t246 -53q172 -1 354 118l102 -247q-193 -139 -467 -140q-285 0 -456 129q-215 158 -215 490zM319 1524q1 72 52 123q53 51 123 51q72 0 122 -51 q51 -51 52 -123q0 -70 -52 -123q-51 -51 -122 -51q-70 0 -123 51q-51 53 -52 123zM451 698h512q0 262 -238 263q-239 -1 -274 -263zM823 1524q0 72 51 123q53 51 123 51q72 0 123 -51t51 -123q0 -70 -51 -123q-51 -51 -123 -51q-70 0 -123 51q-51 53 -51 123z" />
<glyph unicode="&#x2013;" horiz-adv-x="1400" d="M154 471v270h1093v-270h-1093z" />
<glyph unicode="&#x2014;" horiz-adv-x="2015" d="M154 471v270h1708v-270h-1708z" />
<glyph unicode="&#x2018;" horiz-adv-x="835" d="M246 1063q14 285 190 575h205q-66 -209 -66 -444q0 -70 7 -131h-336z" />
<glyph unicode="&#x2019;" horiz-adv-x="835" d="M195 1063q66 205 65 444q0 68 -6 131h336q-14 -285 -191 -575h-204z" />
<glyph unicode="&#x201c;" horiz-adv-x="1357" d="M246 1063q14 285 190 575h205q-66 -209 -66 -444q0 -70 7 -131h-336zM768 1063q14 285 190 575h205q-66 -209 -65 -444q0 -70 6 -131h-336z" />
<glyph unicode="&#x201d;" horiz-adv-x="1357" d="M195 1063q66 205 65 444q0 68 -6 131h336q-14 -285 -191 -575h-204zM717 1063q66 205 65 444q0 68 -6 131h336q-14 -285 -190 -575h-205z" />
<glyph unicode="&#x2020;" horiz-adv-x="1204" d="M133 971v221h340l-8 393h274l-10 -393h342v-221h-348l-23 -979h-196l-25 979h-346z" />
<glyph unicode="&#x2021;" horiz-adv-x="1204" d="M133 377v221h354l-8 373h-346v221h340l-8 393h274l-10 -393h342v-221h-348l-8 -373h356v-221h-362l-9 -385h-196l-10 385h-361z" />
<glyph unicode="&#x2022;" horiz-adv-x="1323" d="M236 731q0 180 122 305q123 123 299 123q182 0 308 -123q123 -123 122 -305q0 -178 -122 -301q-125 -123 -308 -123q-176 0 -299 123t-122 301z" />
<glyph unicode="&#x2026;" horiz-adv-x="2525" d="M238 197q-1 90 65 153q66 66 156 66t153 -66q66 -63 66 -153t-66 -156q-63 -66 -153 -66t-156 66t-65 156zM1042 197q0 90 66 153q66 66 156 66t153 -66q66 -63 66 -153t-66 -156q-63 -66 -153 -66t-156 66t-66 156zM1847 197q0 90 66 153q66 66 155 66q90 0 154 -66 q66 -63 66 -153t-66 -156q-63 -66 -154 -66q-90 0 -155 66q-66 66 -66 156z" />
<glyph unicode="&#x2030;" horiz-adv-x="3719" d="M205 1122q0 221 106 348q117 139 348 140q233 0 351 -144q104 -125 104 -340q0 -221 -106 -348q-117 -139 -349 -139q-233 0 -350 143q-104 125 -104 340zM494 1124q0 -219 168 -219q163 0 163 219t-166 219t-165 -219zM819 -276l746 2070l284 -47l-747 -2075zM1569 381 q0 221 106 348q117 139 348 139q234 0 351 -143q104 -125 104 -340q0 -221 -106 -348q-117 -139 -349 -139q-233 0 -350 143q-104 125 -104 340zM1858 383q0 -219 165 -219q166 0 166 219t-168 219q-163 0 -163 -219zM2605 381q0 221 107 348q117 139 348 139 q233 0 350 -143q104 -125 104 -340q0 -221 -106 -348q-117 -139 -348 -139q-233 0 -350 143q-104 125 -105 340zM2894 383q0 -219 166 -219t166 219t-168 219q-164 0 -164 -219z" />
<glyph unicode="&#x2044;" horiz-adv-x="1193" d="M68 -276l745 2070l285 -47l-748 -2075z" />
<glyph unicode="&#x20ac;" horiz-adv-x="1630" d="M102 459v235h166q-4 70 -4 109v26h-162v236h195q66 248 248 391q195 154 493 154q260 0 453 -107l-115 -274q-150 86 -329 86q-276 0 -377 -250h596l-43 -236h-596v-32q0 -70 4 -103h565l-43 -235h-459q100 -186 365 -187q123 0 301 93l106 -261q-227 -129 -432 -129 q-559 0 -719 484h-213z" />
<glyph unicode="&#x2116;" horiz-adv-x="2652" d="M184 0v1585h412l438 -778q78 -78 174 -303h4v1032l312 49v-1585h-389l-402 705q-119 180 -233 389h-4v-1094h-312zM1669 1077q0 514 471 514q182 0 301 -88q170 -129 170 -428q0 -514 -473 -514q-469 0 -469 516zM1786 229v250h708v-250h-708zM1933 1077q0 -291 201 -291 q209 0 209 291q0 287 -207 287q-203 0 -203 -287z" />
<glyph unicode="&#x2122;" horiz-adv-x="2164" d="M102 1276l41 207h775l-35 -207h-262v-670h-205v670h-314zM928 606l172 877h174l207 -522l198 522h174l179 -877h-215l-78 451l-174 -451h-170l-168 447l-94 -447h-205z" />
<glyph unicode="&#x2202;" horiz-adv-x="1464" d="M164 541q0 266 135 407q135 143 393 144q152 0 236 -54q-195 301 -602 408l192 219q391 -113 588 -391q174 -248 174 -590q0 -270 -94 -446q-139 -262 -467 -263q-254 0 -404 148q-152 150 -151 418zM442 541q0 -313 277 -314q287 0 287 449q-1 32 -5 61q-104 96 -296 97 q-262 0 -263 -293z" />
<glyph unicode="&#x2206;" horiz-adv-x="1617" d="M92 0v201l598 1384h264l572 -1392v-193h-1434zM459 285h698l-336 899z" />
<glyph unicode="&#x220f;" horiz-adv-x="1695" d="M246 -416v2157h1204v-2157h-307v1886h-594v-1886h-303z" />
<glyph unicode="&#x2211;" horiz-adv-x="1546" d="M154 -176l579 876l-561 801v238h1206v-285h-817l529 -747l-553 -838h856l-41 -283h-1198v238z" />
<glyph unicode="&#x221a;" horiz-adv-x="1562" d="M82 401v281h545l180 -657l383 1738h311l-549 -2179h-274l-266 817h-330z" />
<glyph unicode="&#x221e;" horiz-adv-x="1994" d="M113 575q0 199 120 322q125 129 347 129q262 0 413 -217q166 217 424 217q207 0 334 -115q131 -119 131 -327q0 -197 -121 -318q-125 -129 -344 -129q-270 0 -424 221q-180 -221 -413 -221q-205 0 -332 113q-135 117 -135 325zM365 584q0 -225 235 -226q170 0 285 215 q-115 236 -289 236q-104 0 -168 -59q-63 -59 -63 -166zM1110 590q106 -236 289 -236q101 1 164 58q68 61 67 176q0 104 -65 162q-61 55 -170 55q-176 0 -285 -215z" />
<glyph unicode="&#x222b;" horiz-adv-x="1136" d="M102 -354l123 262q123 -61 144 -62q57 0 57 93v1433q0 379 340 379q119 0 268 -76l-123 -260q-109 61 -145 62q-57 0 -57 -93v-1433q0 -379 -340 -379q-123 0 -267 74z" />
<glyph unicode="&#x2248;" horiz-adv-x="1409" d="M184 434q164 182 303 182q90 0 218 -63q125 -66 186 -66q98 0 260 183l74 -301q-164 -182 -303 -183q-88 0 -217 66q-127 63 -187 63q-100 0 -260 -182zM184 989q164 182 303 182q90 0 218 -63q125 -66 186 -66q98 0 260 183l74 -301q-164 -182 -303 -183q-88 0 -217 66 q-127 63 -187 63q-100 0 -260 -182z" />
<glyph unicode="&#x2260;" d="M184 301v270h369l82 222h-451v270h549l109 297l223 -51l-90 -246h358v-270h-456l-80 -222h536v-270h-635l-96 -264l-227 47l80 217h-271z" />
<glyph unicode="&#x2264;" horiz-adv-x="1519" d="M184 0v270h1149v-270h-1149zM186 762v307l1149 399v-276l-813 -277l813 -278v-275z" />
<glyph unicode="&#x2265;" horiz-adv-x="1519" d="M184 362v275l813 278l-813 277v276l1149 -399v-307zM186 0v270h1149v-270h-1149z" />
<glyph unicode="&#x25ca;" horiz-adv-x="1382" d="M123 778l506 830h121l510 -830l-510 -825h-121zM446 780l242 -405l246 401l-244 408z" />
<glyph unicode="&#x25fc;" horiz-adv-x="1198" d="M0 0v1198h1198v-1198h-1198z" />
<glyph unicode="&#xf8ff;" horiz-adv-x="1390" d="M41 0v1759h1309v-1759h-1309zM248 207h895v1345h-895v-1345zM360 1356q121 80 306 80q330 0 329 -293q0 -152 -141 -269q-143 -117 -143 -157v-25h-199v58q0 111 137 204q135 94 135 168q0 125 -145 125q-111 0 -207 -63zM473 471q0 59 39 98q41 41 98 41q59 0 99 -41 q41 -39 41 -98q0 -57 -41 -96q-41 -41 -99 -41q-57 0 -98 41q-39 39 -39 96z" />
<glyph unicode="&#xfb01;" horiz-adv-x="1650" d="M20 907v271h179v45q0 440 452 440q197 0 373 -72l-113 -270q-100 68 -221 68q-174 0 -174 -179v-32h311l-49 -271h-262v-907h-317v907h-179zM1135 1505q0 85 59 144q61 59 143 59q84 0 144 -59q59 -59 59 -144q0 -82 -59 -143q-59 -59 -144 -59q-82 0 -143 59 q-59 61 -59 143zM1186 0v1149l317 49v-1198h-317z" />
<glyph unicode="&#xfb02;" horiz-adv-x="1654" d="M20 907v271h179v45q0 440 452 440q197 0 373 -72l-113 -270q-100 68 -221 68q-174 0 -174 -179v-32h311l-49 -271h-262v-907h-317v907h-179zM1184 0v1589l317 49v-1638h-317z" />
</font>
</defs>
</svg>
