<?xml version="1.0" standalone="no"?>
<!DOCTYPE svg PUBLIC "-//W3C//DTD SVG 1.1//EN" "http://www.w3.org/Graphics/SVG/1.1/DTD/svg11.dtd" >
<svg xmlns="http://www.w3.org/2000/svg">
<metadata></metadata>
<defs>
<font id="datsun_regularregular" horiz-adv-x="1374" >
<font-face units-per-em="2048" ascent="1638" descent="-410" />
<missing-glyph horiz-adv-x="716" />
<glyph horiz-adv-x="0" />
<glyph unicode="&#xd;" horiz-adv-x="2048" />
<glyph horiz-adv-x="0" />
<glyph horiz-adv-x="0" />
<glyph unicode=" "  horiz-adv-x="716" />
<glyph unicode="&#x09;" horiz-adv-x="716" />
<glyph unicode="&#xa0;" horiz-adv-x="716" />
<glyph unicode="!" horiz-adv-x="743" d="M236 119q0 57 38 98q39 39 97 39q59 0 98 -39t39 -98q0 -57 -39 -96q-41 -39 -98 -39q-58 0 -97 39t-38 96zM258 1571h221l-26 -1163h-168z" />
<glyph unicode="&#x22;" horiz-adv-x="825" d="M154 1571h188l-20 -512h-148zM483 1571h189l-21 -512h-147z" />
<glyph unicode="#" horiz-adv-x="1611" d="M133 451v161h307l64 351h-297v161h325l80 447h191l-84 -447h295l80 447h190l-84 -447h279v-161h-308l-63 -351h293v-161h-322l-82 -451h-188l84 451h-295l-82 -451h-188l84 451h-279zM627 612h295l63 351h-295z" />
<glyph unicode="$" horiz-adv-x="1257" d="M102 119l74 182q205 -127 397 -131v543l-28 12q-240 94 -334 193q-94 98 -94 249q0 147 82 252q117 152 374 166v264l168 27v-295q174 -16 373 -106l-86 -207q-147 98 -287 123v-525q225 -98 308 -196q76 -92 75 -248q0 -170 -104 -283q-100 -109 -279 -141v-287h-168 v273q-264 6 -471 135zM332 1184q0 -87 59 -142q49 -49 182 -106v463q-242 -18 -241 -215zM741 186q170 47 170 215q0 156 -170 240v-455z" />
<glyph unicode="%" horiz-adv-x="2451" d="M174 1110q0 209 94 334q109 143 320 143q197 0 303 -129q106 -125 106 -348q0 -231 -110 -358q-109 -125 -299 -125q-196 0 -305 127t-109 356zM375 1110q0 -324 205 -324q213 0 213 324q0 313 -209 313t-209 -313zM756 -236l731 2018l178 -31l-731 -2019zM1454 467 q0 209 94 334q109 143 320 143q197 0 303 -129q106 -125 106 -348q0 -231 -110 -358q-109 -125 -299 -125q-196 0 -305 127t-109 356zM1655 467q0 -324 205 -324q213 0 213 324q0 313 -209 313t-209 -313z" />
<glyph unicode="&#x26;" horiz-adv-x="1646" d="M143 391q0 295 308 473q-182 195 -183 371q0 145 94 242q111 111 314 110q160 0 266 -84q123 -96 123 -276q0 -229 -307 -408l356 -348q106 170 186 442h218q-98 -344 -265 -579q270 -270 332 -334h-278l-181 184q-211 -201 -475 -200q-233 0 -368 104q-139 109 -140 303 zM362 408q0 -117 78 -183t213 -65q190 0 342 157l-405 406q-227 -141 -228 -315zM467 1233q0 -115 154 -277q248 131 247 279q0 70 -43 119q-55 57 -155 57q-90 0 -148 -51q-55 -51 -55 -127z" />
<glyph unicode="'" horiz-adv-x="495" d="M154 1571h188l-20 -512h-148z" />
<glyph unicode="(" horiz-adv-x="942" d="M195 688q0 676 419 1084l123 -125q-344 -367 -344 -959q0 -590 344 -954l-123 -125q-420 406 -419 1079z" />
<glyph unicode=")" horiz-adv-x="942" d="M205 -266q344 367 344 958q0 590 -344 955l123 125q420 -406 420 -1080q0 -676 -420 -1083z" />
<glyph unicode="*" horiz-adv-x="1128" d="M133 1208l51 158l301 -100l-2 315h164l-2 -315l299 100l51 -158l-305 -96l195 -264l-127 -90l-193 266l-196 -266l-125 90l194 264z" />
<glyph unicode="+" d="M154 500v170h442v442h182v-442h443v-170h-443v-445h-182v445h-442z" />
<glyph unicode="," horiz-adv-x="663" d="M164 -272q55 199 55 370q0 68 -6 142h236q-23 -279 -154 -512h-131z" />
<glyph unicode="-" horiz-adv-x="833" d="M133 463v190h567v-190h-567z" />
<glyph unicode="." horiz-adv-x="661" d="M195 119q0 57 38 98q39 39 97 39q59 0 98 -39t39 -98q0 -57 -39 -96q-41 -39 -98 -39q-58 0 -97 39t-38 96z" />
<glyph unicode="/" horiz-adv-x="1368" d="M246 -236l739 2046l178 -30l-739 -2048z" />
<glyph unicode="0" horiz-adv-x="1646" d="M143 791q0 350 158 559q178 238 526 237q324 0 502 -217q174 -211 174 -582q0 -348 -155 -561q-176 -244 -521 -243q-327 0 -505 211t-179 596zM377 791q0 -618 440 -619q453 1 453 619q0 608 -449 608q-444 0 -444 -608z" />
<glyph unicode="1" horiz-adv-x="755" d="M41 1305v172l510 94v-1571h-211v1331z" />
<glyph unicode="2" horiz-adv-x="1226" d="M113 0v190q451 381 600 574q137 178 137 360q0 274 -295 275q-184 0 -340 -105l-82 197q221 96 434 96q516 0 516 -457q0 -268 -215 -524q-121 -141 -458 -416h657l-31 -190h-923z" />
<glyph unicode="3" horiz-adv-x="1187" d="M104 1487q213 100 424 100q221 0 346 -100q129 -106 130 -307q0 -297 -269 -373q154 -29 236 -135q74 -98 73 -236q0 -182 -122 -307q-143 -145 -412 -145q-225 0 -397 90l82 200q160 -102 329 -102q135 0 215 61q84 68 84 197q1 272 -411 272v189q369 2 368 272 q0 236 -266 236q-180 0 -328 -111z" />
<glyph unicode="4" horiz-adv-x="1325" d="M61 393v178l660 1000h256v-993h276l-32 -185h-244v-393h-199v393h-717zM287 578h491v753h-2z" />
<glyph unicode="5" horiz-adv-x="1118" d="M53 74l82 200q135 -102 324 -102q315 0 315 301t-368 301q-145 0 -252 -39l51 836h774l-35 -191h-545l-24 -424q41 6 94 7q526 0 526 -476q0 -264 -172 -395q-141 -109 -372 -108q-221 0 -398 90z" />
<glyph unicode="6" horiz-adv-x="1320" d="M123 750q0 418 174 630q168 207 483 207q188 0 342 -74l-82 -190q-129 70 -268 70q-184 0 -293 -127q-117 -137 -127 -402q150 129 373 129q225 0 358 -129q135 -133 136 -366q0 -242 -148 -379q-143 -135 -389 -135q-559 0 -559 766zM348 647q18 -475 338 -475 q131 0 211 70q94 84 94 252q0 303 -293 303q-194 0 -350 -150z" />
<glyph unicode="7" horiz-adv-x="1054" d="M49 1380l33 191h922v-191l-629 -1380h-238l645 1380h-733z" />
<glyph unicode="8" horiz-adv-x="1351" d="M123 424q0 264 307 395q-250 135 -250 369q0 180 131 289q133 111 367 110q244 0 377 -121q117 -109 116 -276q0 -274 -253 -377q311 -129 311 -393q0 -203 -158 -322q-154 -115 -401 -114q-256 0 -406 125q-141 119 -141 315zM336 422q-1 -127 110 -193q94 -57 234 -57 q150 0 244 70q92 70 92 180q0 109 -103 182q-74 55 -247 115q-4 0 -7 2q-170 -66 -239 -125q-84 -72 -84 -174zM395 1194q0 -178 283 -291q278 109 278 291q0 205 -280 205q-281 0 -281 -205z" />
<glyph unicode="9" horiz-adv-x="1320" d="M102 1073q0 242 148 379q143 135 389 135q559 0 559 -766q0 -418 -174 -631q-168 -207 -483 -206q-188 0 -342 73l82 191q129 -70 268 -70q184 0 293 127q117 137 127 402q-150 -129 -373 -129q-225 0 -356 129q-137 133 -138 366zM330 1077q0 -303 293 -303 q194 0 350 150q-18 475 -338 475q-131 0 -211 -70q-94 -84 -94 -252z" />
<glyph unicode=":" horiz-adv-x="661" d="M195 119q0 57 38 98q39 39 97 39q59 0 98 -39t39 -98q0 -57 -39 -96q-41 -39 -98 -39q-58 0 -97 39t-38 96zM195 999q0 57 38 99q39 39 97 39q59 0 98 -39t39 -99q0 -57 -39 -96q-41 -39 -98 -39q-58 0 -97 39t-38 96z" />
<glyph unicode=";" horiz-adv-x="718" d="M195 -272q55 199 55 370q0 68 -6 142h235q-23 -279 -153 -512h-131zM231 999q0 57 39 99q39 39 97 39q59 0 98 -39t39 -99q0 -57 -39 -96q-41 -39 -98 -39q-58 0 -97 39t-39 96z" />
<glyph unicode="&#x3c;" d="M154 498v159l1067 379v-186l-842 -272l842 -273v-186z" />
<glyph unicode="=" d="M154 299v170h1067v-170h-1067zM154 774v170h1067v-170h-1067z" />
<glyph unicode="&#x3e;" d="M154 119v186l841 273l-841 272v186l1067 -379v-159z" />
<glyph unicode="?" horiz-adv-x="1030" d="M123 1511q137 76 356 76q449 0 449 -383q0 -135 -56 -231q-49 -88 -190 -217q-162 -147 -162 -297v-51h-198v57q0 139 36 215q39 78 164 192q186 168 187 312q0 215 -236 215q-135 0 -272 -76zM287 119q0 57 39 98q39 39 96 39q59 0 98 -39t39 -98q0 -57 -39 -96 q-41 -39 -98 -39t-96 39t-39 96z" />
<glyph unicode="@" horiz-adv-x="2074" d="M184 709q0 424 250 657q238 221 631 221q406 0 625 -219q201 -199 200 -532q0 -254 -131 -418q-129 -160 -325 -160q-175 0 -222 90q-131 -90 -266 -90q-201 0 -293 123q-74 94 -73 250q0 199 96 352q131 205 389 205q172 0 395 -74l-96 -477q-27 -127 -27 -156 q0 -82 99 -82q119 0 190 99q80 111 80 321q0 266 -154 428q-166 176 -467 176q-360 0 -555 -206q-178 -190 -178 -506q0 -319 193 -510q197 -193 532 -193q276 0 475 162l101 -141q-211 -184 -600 -185q-397 0 -633 236q-236 233 -236 629zM766 635q0 -113 41 -162 q45 -51 149 -51q96 0 201 65l107 517q-82 29 -199 28q-168 1 -246 -153q-53 -104 -53 -244z" />
<glyph unicode="A" horiz-adv-x="1499" d="M31 0l626 1571h211l600 -1571h-229l-158 449h-653l-166 -449h-231zM496 627h520l-254 704z" />
<glyph unicode="B" horiz-adv-x="1458" d="M184 43v1483q168 61 500 61q580 0 580 -420q-1 -274 -234 -358q150 -27 223 -143q61 -94 62 -228q0 -240 -180 -356q-152 -98 -418 -98q-342 0 -533 59zM395 199q102 -31 314 -31q211 0 297 76q76 66 75 205q0 143 -90 204q-78 53 -241 54h-355v-508zM395 885h344 q295 0 295 252q0 133 -71 194q-82 72 -275 72q-191 0 -293 -29v-489z" />
<glyph unicode="C" horiz-adv-x="1533" d="M123 791q0 340 168 544q203 252 629 252q315 0 501 -96l-84 -201q-170 109 -417 109q-563 0 -564 -615q0 -612 564 -612q233 0 415 107l80 -195q-193 -100 -493 -100q-426 0 -631 256q-168 209 -168 551z" />
<glyph unicode="D" horiz-adv-x="1673" d="M184 82v1411q252 94 576 94q420 0 622 -252q168 -205 168 -547q0 -371 -190 -577q-209 -227 -619 -227q-295 0 -557 98zM395 221q168 -49 340 -49q582 1 582 619q0 608 -559 608q-199 0 -363 -49v-1129z" />
<glyph unicode="E" horiz-adv-x="1216" d="M184 0v1571h910l-33 -182h-666v-488h637l-33 -182h-604v-537h699l-33 -182h-877z" />
<glyph unicode="F" horiz-adv-x="1196" d="M184 0v1571h910l-33 -182h-666v-488h637l-33 -182h-604v-719h-211z" />
<glyph unicode="G" horiz-adv-x="1634" d="M123 793q0 324 153 526q205 268 646 268q360 0 540 -96l-82 -197q-193 104 -456 105q-567 0 -568 -613q0 -614 574 -614q195 0 348 53v430h-295l35 191h452v-764q-233 -98 -546 -98q-434 0 -639 264q-162 209 -162 545z" />
<glyph unicode="H" horiz-adv-x="1646" d="M184 0v1538l211 33v-670h856v637l211 33v-1571h-211v719h-856v-719h-211z" />
<glyph unicode="I" horiz-adv-x="579" d="M184 0v1538l211 33v-1571h-211z" />
<glyph unicode="J" horiz-adv-x="1118" d="M51 63l76 189q147 -80 303 -80q293 0 293 313v1053l211 33v-1108q0 -479 -506 -479h-5q-190 0 -372 79z" />
<glyph unicode="K" horiz-adv-x="1366" d="M184 0v1538l211 33v-719l611 719h258l-635 -760l676 -811h-258l-652 762v-762h-211z" />
<glyph unicode="L" horiz-adv-x="1134" d="M184 0v1538l211 33v-1381h699l-35 -190h-875z" />
<glyph unicode="M" horiz-adv-x="2158" d="M72 0l286 1571h217l429 -1106q68 -178 81 -262q14 92 78 258l428 1110h209l287 -1571h-211l-186 1001q-23 111 -37 222q-29 -104 -74 -219l-399 -1004h-207l-406 1004q-51 127 -73 219q-6 -80 -33 -224l-178 -999h-211z" />
<glyph unicode="N" horiz-adv-x="1708" d="M184 0v1571h267l860 -1290h2v1257l211 33v-1571h-267l-860 1278h-2v-1278h-211z" />
<glyph unicode="O" horiz-adv-x="1810" d="M123 791q0 332 158 536q199 260 624 260q399 0 602 -231q180 -209 181 -565q0 -362 -185 -574q-203 -233 -594 -233q-393 0 -598 231q-188 211 -188 576zM356 788q0 -322 164 -479q141 -137 381 -137q265 0 406 152q147 160 147 464q0 309 -151 465q-139 145 -398 146 q-549 0 -549 -611z" />
<glyph unicode="P" horiz-adv-x="1427" d="M184 0v1526q221 61 496 61q645 0 645 -534q0 -213 -123 -361q-163 -194 -501 -194h-3q-143 0 -303 32v-530h-211zM395 723q131 -41 289 -41q408 0 408 379q0 342 -420 342q-150 0 -277 -29v-651z" />
<glyph unicode="Q" horiz-adv-x="1810" d="M123 791q0 332 158 536q199 260 624 260q399 0 602 -231q180 -209 181 -565q0 -571 -426 -746l301 -141l-133 -189l-502 269h-19q-393 0 -598 231q-188 211 -188 576zM356 788q0 -322 164 -479q141 -137 381 -137q265 0 406 152q147 160 147 464q0 309 -151 465 q-139 145 -398 146q-549 0 -549 -611z" />
<glyph unicode="R" horiz-adv-x="1478" d="M184 0v1528q199 59 465 59q555 0 555 -469q0 -133 -61 -246q-84 -152 -258 -206l522 -666h-279l-479 635q-133 0 -254 16v-651h-211zM395 848q115 -29 252 -29q328 0 328 293q0 291 -328 291q-150 0 -252 -29v-526z" />
<glyph unicode="S" horiz-adv-x="1257" d="M102 119l74 182q217 -131 420 -131q315 0 315 231q0 121 -84 189q-61 47 -282 135q-240 94 -334 193q-94 98 -94 249q0 156 90 265q130 155 414 155h4q252 0 489 -112l-82 -197q-201 123 -416 123q-284 0 -284 -215q0 -98 76 -160q61 -49 239 -121q285 -115 383 -217 q94 -96 94 -266q0 -205 -149 -324q-144 -114 -383 -114h-4q-266 0 -486 135z" />
<glyph unicode="T" horiz-adv-x="1337" d="M41 1380l35 191h1220l-34 -191h-486v-1380h-211v1380h-524z" />
<glyph unicode="U" horiz-adv-x="1597" d="M184 528v1010l211 33v-1032q0 -367 404 -367q403 0 403 367v999l211 33v-1043q0 -254 -147 -395q-157 -149 -463 -149h-4h-4q-310 0 -467 155q-143 139 -144 389z" />
<glyph unicode="V" horiz-adv-x="1478" d="M41 1571h235l369 -1049q59 -174 88 -301q29 127 92 301l381 1049h232l-607 -1571h-210z" />
<glyph unicode="W" horiz-adv-x="2439" d="M41 1571h235l334 -1077q57 -180 72 -277q10 88 70 277l352 1077h256l321 -1079q55 -182 66 -275q8 70 74 277l346 1077h231l-555 -1571h-207l-366 1180q-33 111 -51 202q-23 -119 -52 -202l-383 -1180h-215z" />
<glyph unicode="X" horiz-adv-x="1558" d="M72 1571h254l456 -619l428 619h250l-561 -776l588 -795h-254l-465 629l-436 -629h-250l567 786z" />
<glyph unicode="Y" horiz-adv-x="1353" d="M20 1571h236l426 -871l440 871h211l-551 -1063v-508h-211v508z" />
<glyph unicode="Z" horiz-adv-x="1316" d="M72 0v176l886 1204h-854l35 191h1069v-170l-893 -1211h910l-35 -190h-1118z" />
<glyph unicode="[" horiz-adv-x="970" d="M205 -391v2165h520l-27 -150h-315v-1866h342v-149h-520z" />
<glyph unicode="\" horiz-adv-x="1368" d="M205 1780l178 30l739 -2046l-178 -32z" />
<glyph unicode="]" horiz-adv-x="909" d="M174 -391l27 149h315v1866h-342v150h520v-2165h-520z" />
<glyph unicode="^" horiz-adv-x="1343" d="M215 492l371 1011h172l370 -1011h-180l-276 757l-277 -757h-180z" />
<glyph unicode="_" horiz-adv-x="1089" d="M10 -127h1069v-170h-1069v170z" />
<glyph unicode="`" horiz-adv-x="1054" d="M297 1655h262l158 -281h-174z" />
<glyph unicode="a" horiz-adv-x="1259" d="M102 334q0 358 469 358q193 0 332 -57v94q0 279 -293 279q-154 0 -370 -93l-78 187q236 82 456 82q283 0 400 -146q84 -109 84 -317v-629q-234 -108 -497 -108h-5q-498 0 -498 350zM315 330q0 -170 293 -170q166 0 295 53v250q-154 55 -319 55q-268 0 -269 -188z" />
<glyph unicode="b" horiz-adv-x="1366" d="M174 78v1526l199 30v-538q143 88 319 88q248 0 395 -164q145 -162 146 -428q0 -279 -150 -442q-152 -166 -411 -166q-248 0 -498 94zM373 207q158 -47 282 -47q359 0 359 438q0 211 -101 317q-88 92 -241 93q-164 0 -299 -103v-698z" />
<glyph unicode="c" horiz-adv-x="1202" d="M133 573q0 279 133 437q147 174 439 174q223 0 374 -72l-78 -186q-139 78 -296 78q-352 0 -353 -426q0 -414 342 -414q170 0 342 100l64 -153q-182 -127 -406 -127q-313 0 -456 211q-104 152 -105 378z" />
<glyph unicode="d" horiz-adv-x="1366" d="M133 575q0 279 150 443q152 166 411 166q133 0 299 -37v457l199 30v-1634h-158l-33 76q-143 -92 -327 -92q-248 0 -395 163q-145 162 -146 428zM352 569q0 -211 101 -317q88 -92 241 -92q164 0 299 100v701q-158 47 -282 47q-359 -1 -359 -439z" />
<glyph unicode="e" horiz-adv-x="1325" d="M133 590q0 231 115 389q147 205 452 205q272 0 398 -162q100 -129 100 -342q0 -68 -12 -141h-836q2 -375 387 -375q166 0 357 100l63 -153q-180 -127 -432 -127q-324 0 -473 196q-119 154 -119 410zM360 707h629q0 137 -74 217q-76 84 -215 84q-166 0 -256 -105 q-68 -78 -84 -196z" />
<glyph unicode="f" horiz-adv-x="890" d="M41 999v168h158v60q0 424 385 424q160 0 307 -72l-78 -186q-103 73 -220 73h-3q-193 0 -193 -239v-60h303l-30 -168h-273v-999h-198v999h-158z" />
<glyph unicode="g" horiz-adv-x="1345" d="M123 610q0 252 139 408q150 166 414 166q150 0 328 -43l167 26v-1095q0 -479 -512 -480q-291 0 -473 82l78 187q227 -96 393 -97q315 0 316 295v58q-139 -80 -318 -80q-264 0 -403 168q-129 152 -129 405zM334 600q0 -377 342 -377q160 1 297 103v630q-147 45 -289 45 q-350 0 -350 -401z" />
<glyph unicode="h" horiz-adv-x="1347" d="M174 0v1604l199 30v-549q158 98 354 99q463 0 463 -461v-723h-199v676q0 172 -76 252q-74 76 -233 76q-172 0 -309 -113v-891h-199z" />
<glyph unicode="i" horiz-adv-x="608" d="M164 1491q0 59 41 100t98 41q59 0 100 -41t41 -100q0 -57 -41 -98t-100 -41q-57 0 -98 41t-41 98zM205 0v1137l198 30v-1167h-198z" />
<glyph unicode="j" horiz-adv-x="665" d="M-113 -379l72 172q53 -24 121 -24h6q102 0 141 59q37 51 37 180v1129l199 30v-1177q0 -397 -379 -398q-103 0 -197 29zM221 1491q0 59 41 100t98 41q59 0 101 -41q41 -41 41 -100q0 -57 -41 -98t-101 -41q-57 0 -98 41t-41 98z" />
<glyph unicode="k" horiz-adv-x="1189" d="M174 0v1604l199 30v-962l475 495h270l-502 -522l533 -645h-281l-495 604v-604h-199z" />
<glyph unicode="l" horiz-adv-x="546" d="M174 0v1604l199 30v-1634h-199z" />
<glyph unicode="m" horiz-adv-x="2082" d="M174 0v1137l199 30v-92q152 109 329 109q252 0 363 -160q172 160 416 160q444 0 444 -461v-723h-199v676q0 328 -276 328q-170 0 -320 -123q18 -88 19 -158v-723h-199v676q0 328 -291 328q-150 0 -286 -119v-885h-199z" />
<glyph unicode="n" horiz-adv-x="1368" d="M174 0v1137l199 30v-82q156 98 375 99q463 0 462 -461v-723h-198v676q0 178 -80 256q-72 72 -225 72q-184 0 -334 -113v-891h-199z" />
<glyph unicode="o" horiz-adv-x="1429" d="M133 590q0 233 117 391q152 203 465 203t465 -203q117 -158 116 -391q0 -262 -131 -422q-154 -184 -450 -184q-287 0 -441 174q-141 160 -141 432zM352 588q0 -227 115 -338q94 -90 248 -90q158 0 252 96q110 110 110 328q0 215 -104 325q-96 98 -258 99 q-162 0 -258 -101q-104 -111 -105 -319z" />
<glyph unicode="p" horiz-adv-x="1366" d="M174 -391v1528l199 30v-71q143 88 319 88q248 0 395 -164q145 -162 146 -428q0 -279 -150 -442q-152 -166 -411 -166q-137 0 -299 36v-411h-199zM373 207q158 -47 282 -47q359 0 359 438q0 211 -101 317q-88 92 -241 93q-164 0 -299 -103v-698z" />
<glyph unicode="q" horiz-adv-x="1355" d="M133 575q0 279 150 443q152 166 411 166q141 0 326 -43l172 26v-1558h-199v461q-139 -86 -319 -86q-248 0 -395 163q-145 162 -146 428zM352 569q0 -211 101 -317q88 -92 241 -92q164 0 299 100v701q-158 47 -282 47q-358 0 -359 -439z" />
<glyph unicode="r" horiz-adv-x="919" d="M174 0v1137l199 30v-102q123 119 250 119q102 0 245 -68l-80 -190q-93 67 -181 67h-3q-127 0 -231 -129v-864h-199z" />
<glyph unicode="s" horiz-adv-x="1077" d="M78 98l69 164q190 -104 377 -104q106 0 166 51q49 43 49 110q0 59 -39 95q-53 47 -225 108q-188 66 -256 123q-96 78 -96 215t98 223q113 100 332 101q205 0 358 -66l-77 -186q-143 78 -285 78q-211 0 -211 -144q0 -63 53 -100q45 -33 199 -88q203 -74 280 -146 q84 -78 84 -210q0 -141 -112 -234q-125 -104 -346 -104h-4q-249 0 -414 114z" />
<glyph unicode="t" horiz-adv-x="903" d="M92 997v170h178v277l199 31v-308h346l-31 -170h-315v-653q0 -184 156 -184q82 0 184 63l63 -153q-135 -86 -266 -86q-336 0 -336 340v673h-178z" />
<glyph unicode="u" horiz-adv-x="1347" d="M158 444v693l198 30v-675q0 -174 78 -252q74 -76 232 -76q174 0 309 98v875l199 30v-1167h-158l-37 72q-152 -88 -361 -88q-461 0 -460 460z" />
<glyph unicode="v" horiz-adv-x="1257" d="M51 1167h236l252 -682q61 -172 100 -299q39 147 92 301l246 680h229l-469 -1167h-211z" />
<glyph unicode="w" horiz-adv-x="1939" d="M61 1167h230l207 -708q51 -170 73 -273q18 113 72 277l227 704h224l206 -700q53 -176 72 -281q18 88 76 275l219 706h211l-387 -1167h-215l-248 766q-37 113 -55 199q-16 -96 -53 -203l-254 -762h-215z" />
<glyph unicode="x" horiz-adv-x="1261" d="M72 0l448 594l-428 573h244l305 -434l309 434h240l-438 -583l436 -584h-244l-311 442l-322 -442h-239z" />
<glyph unicode="y" horiz-adv-x="1263" d="M92 1167h232l335 -911l334 911h219l-512 -1243q-72 -176 -151 -250q-86 -82 -221 -82q-99 1 -205 50l67 165q61 -38 132 -38h4q115 0 192 184l39 92z" />
<glyph unicode="z" horiz-adv-x="1148" d="M92 0v176l688 821h-678l31 170h895v-176l-692 -821h721l-31 -170h-934z" />
<glyph unicode="{" horiz-adv-x="942" d="M82 610v168q131 8 178 99q31 63 31 210v297q0 225 96 308q96 82 361 82l-27 -150q-152 0 -205 -53q-47 -47 -47 -174v-303q0 -299 -121 -406q121 -102 121 -401v-303q0 -137 57 -185q49 -41 197 -41v-149q-242 0 -336 80q-96 84 -96 307v295q0 150 -27 211 q-45 100 -182 108z" />
<glyph unicode="|" horiz-adv-x="649" d="M236 -391v2165h178v-2165h-178z" />
<glyph unicode="}" horiz-adv-x="942" d="M195 -391l26 149q152 0 205 54q47 47 47 174v303q0 299 121 405q-121 102 -121 402v303q0 137 -55 184q-51 41 -199 41v150q242 0 336 -80q96 -84 96 -308v-294q0 -150 29 -211q43 -100 180 -109v-168q-131 -8 -178 -98q-31 -63 -31 -211v-297q0 -225 -96 -307t-360 -82z " />
<glyph unicode="~" horiz-adv-x="1341" d="M154 786q150 180 307 181q88 0 215 -72q129 -74 215 -74q96 0 248 176l49 -190q-156 -180 -307 -180q-84 0 -228 73q-143 72 -204 72q-88 0 -246 -176z" />
<glyph unicode="&#xa2;" horiz-adv-x="1263" d="M195 573q0 274 129 433q143 174 428 178l79 370l179 -36l-76 -349q98 -14 207 -57l-78 -186q-84 47 -168 63l-178 -823q12 -2 39 -2q143 0 342 100l63 -153q-176 -127 -405 -127q-29 0 -78 4l-60 -281l-178 39l62 283q-307 131 -307 544zM414 578q0 -253 131 -351 l166 772q-297 -33 -297 -421z" />
<glyph unicode="&#xa3;" horiz-adv-x="1323" d="M133 0v168q127 0 178 108q45 96 45 322v74h-215v190h215v225q0 500 443 500q211 0 370 -96l-82 -197q-158 104 -294 105q-137 0 -189 -96q-37 -70 -37 -224v-217h416l-35 -190h-381v-35q0 -309 -82 -447h650l-35 -190h-967z" />
<glyph unicode="&#xa5;" horiz-adv-x="1292" d="M51 1571h236l364 -830l379 830h211l-410 -856h222l-33 -187h-268v-110h301l-33 -174h-268v-244h-211v244h-310v174h310v110h-310v187h230z" />
<glyph unicode="&#xa7;" horiz-adv-x="1234" d="M195 727q0 207 219 291q-137 92 -138 246q0 154 119 239q113 84 301 84q197 0 344 -80l-73 -149q-125 74 -279 74q-113 0 -176 -48q-59 -43 -59 -116q0 -74 65 -119q43 -31 195 -90q188 -76 262 -148q86 -82 86 -213q0 -200 -219 -284q137 -94 137 -279q0 -162 -119 -252 q-113 -86 -301 -86q-197 0 -344 80l74 150q125 -74 278 -74q236 0 236 172q0 92 -58 145q-47 41 -188 97q-199 80 -270 141q-92 82 -92 219zM371 739q0 -84 57 -127q43 -33 217 -102l33 -14q207 39 207 196q0 72 -37 107q-45 45 -195 104l-86 35q-197 -43 -196 -199z" />
<glyph unicode="&#xa9;" horiz-adv-x="2078" d="M256 774q0 349 229 572q221 213 553 213t555 -213q229 -223 230 -572q0 -348 -230 -569q-223 -213 -555 -213t-553 213q-229 221 -229 569zM422 774q0 -283 178 -457q174 -170 438 -170q266 0 439 170q180 174 180 457t-180 459q-174 170 -439 170q-264 0 -438 -170 q-178 -176 -178 -459zM612 780q0 186 84 305q113 162 361 162q154 0 280 -73l-67 -158q-109 61 -215 61q-252 0 -252 -291q0 -299 248 -299q115 0 249 82l58 -141q-102 -111 -318 -111q-212 1 -325 138q-102 123 -103 325z" />
<glyph unicode="&#xaa;" horiz-adv-x="1073" d="M143 860q0 289 369 289q104 0 213 -39v31q0 184 -211 184q-133 0 -278 -78l-66 154q172 90 365 90q365 0 364 -363v-479q-152 -76 -371 -76q-385 0 -385 287zM330 864q0 -141 207 -141q96 0 188 31v207q-92 43 -207 43q-188 0 -188 -140z" />
<glyph unicode="&#xac;" d="M154 717v190h1067v-637h-183v447h-884z" />
<glyph unicode="&#xae;" horiz-adv-x="1159" d="M123 1092q0 208 133 335q127 121 324 121q201 0 323 -114q133 -123 133 -342q0 -215 -141 -342q-127 -115 -315 -115t-316 115q-141 127 -141 342zM250 1092q0 -162 94 -254q88 -86 236 -86q147 0 235 86q94 92 94 254q0 164 -94 256q-88 84 -235 84t-236 -84 q-94 -92 -94 -256zM399 874v445q76 20 181 20q182 0 182 -143q0 -102 -96 -131l133 -191h-127l-119 181l-37 4v-185h-117zM516 1141q33 -4 47 -4q78 0 78 55t-70 55q-37 0 -55 -6v-100z" />
<glyph unicode="&#xb0;" horiz-adv-x="974" d="M113 1255q-1 167 108 273q106 104 264 104t267 -104q111 -106 110 -273q0 -166 -110 -270q-106 -102 -267 -102q-158 0 -264 102q-109 104 -108 270zM279 1255q0 -98 61 -153q55 -53 145 -53t148 53q61 55 61 153t-61 156q-57 53 -148 53q-90 0 -145 -53 q-61 -57 -61 -156z" />
<glyph unicode="&#xb1;" d="M154 0v170h1067v-170h-1067zM154 662v169h442v396h182v-396h443v-169h-443v-398h-182v398h-442z" />
<glyph unicode="&#xb5;" horiz-adv-x="1525" d="M205 -391v1528l198 30v-690q0 -313 297 -313q322 0 322 368v605l199 30v-927q0 -80 69 -80q33 0 70 20l63 -149q-70 -47 -176 -47q-182 0 -211 166q-135 -166 -344 -166q-229 0 -289 127v-502h-198z" />
<glyph unicode="&#xb6;" horiz-adv-x="1339" d="M195 1114q0 283 172 420q145 117 401 117q227 0 377 -54v-1988h-199v1806h-119v-1806h-198v999q-205 29 -320 160q-115 133 -114 346z" />
<glyph unicode="&#xb7;" horiz-adv-x="681" d="M205 651q0 57 39 99q39 39 96 38q59 0 98 -38q39 -39 39 -99q0 -57 -39 -96q-41 -39 -98 -39t-96 39t-39 96z" />
<glyph unicode="&#xba;" horiz-adv-x="1206" d="M164 1018q0 186 88 311q117 162 352 162q236 0 350 -162q88 -125 88 -311q0 -209 -98 -336q-117 -147 -340 -147q-217 0 -334 137q-106 129 -106 346zM348 1016q0 -311 256 -311q110 -1 176 69q78 80 78 242q0 152 -74 231q-68 72 -180 72q-115 0 -182 -72 q-74 -80 -74 -231z" />
<glyph unicode="&#xf7;" d="M154 500v170h1067v-170h-1067zM547 119q0 57 39 98q39 39 96 39q59 0 98 -39t39 -98q0 -57 -39 -96q-41 -39 -98 -39t-96 39t-39 96zM547 1061q0 57 39 98q39 39 96 39q59 0 98 -39t39 -98q0 -57 -39 -96q-41 -39 -98 -39t-96 39t-39 96z" />
<glyph unicode="&#x192;" horiz-adv-x="1595" d="M92 -342l78 186q84 -66 207 -65q129 0 188 96q39 61 60 197l88 594h-224v190h248l43 287q66 444 457 444q143 0 266 -63l-78 -187q-84 66 -198 66q-135 0 -195 -90q-43 -63 -61 -203l-35 -254h276l-32 -190h-271l-94 -629q-66 -442 -457 -443q-143 0 -266 64z" />
<glyph unicode="&#x3a9;" horiz-adv-x="1738" d="M154 883q0 324 211 520q201 184 505 184q309 0 510 -192q205 -197 205 -512q0 -233 -117 -404q-115 -172 -321 -246v-53h432l-29 -180h-585v375q188 47 295 178q109 135 108 330q0 215 -125 360q-137 158 -373 158q-233 0 -372 -154q-129 -143 -129 -364q0 -197 110 -332 q106 -131 291 -176v-375h-604v180h426v53q-209 74 -324 244t-114 406z" />
<glyph unicode="&#x3c0;" horiz-adv-x="1564" d="M123 991v176h1380l-30 -176h-234v-682q0 -150 137 -149q25 0 49 8l62 -152q-76 -33 -150 -32q-297 0 -297 290v717h-462l-144 -991h-198l143 991h-256z" />
<glyph unicode="&#x401;" horiz-adv-x="1288" d="M184 0v1571h910l-33 -182h-666v-488h637l-33 -182h-604v-537h699l-33 -182h-877zM266 1855q0 60 41 101t99 41q59 0 100 -41t41 -101q0 -57 -41 -98t-100 -41q-57 0 -99 41q-41 41 -41 98zM782 1855q0 60 41 101t99 41q59 0 100 -41t41 -101q0 -57 -41 -98t-100 -41 q-57 0 -99 41q-41 41 -41 98z" />
<glyph unicode="&#x410;" horiz-adv-x="1499" d="M31 0l626 1571h211l600 -1571h-229l-158 449h-653l-166 -449h-231zM496 627h520l-254 704z" />
<glyph unicode="&#x411;" horiz-adv-x="1435" d="M184 1571h957l-35 -191h-709v-450q178 37 320 37q260 0 432 -123q184 -133 184 -361q0 -500 -661 -499q-317 0 -486 61v1524zM397 197q102 -29 279 -29q428 0 428 315q0 129 -119 217q-115 84 -278 84q-164 0 -310 -51v-536z" />
<glyph unicode="&#x412;" horiz-adv-x="1458" d="M184 43v1483q168 61 500 61q580 0 580 -420q-1 -274 -234 -358q150 -27 223 -143q61 -94 62 -228q0 -240 -180 -356q-152 -98 -418 -98q-342 0 -533 59zM395 199q102 -31 314 -31q211 0 297 76q76 66 75 205q0 143 -90 204q-78 53 -241 54h-355v-508zM395 885h344 q295 0 295 252q0 133 -71 194q-82 72 -275 72q-191 0 -293 -29v-489z" />
<glyph unicode="&#x413;" horiz-adv-x="1134" d="M184 0v1571h930l-35 -191h-684v-1380h-211z" />
<glyph unicode="&#x414;" horiz-adv-x="1617" d="M31 190q221 0 270 213l109 721q35 229 170 336q139 111 407 111h356v-1381h213v-563l-192 -28v401h-1141v-373l-192 -28v591zM385 190h748v1190h-146q-199 0 -287 -88q-82 -82 -110 -284l-86 -613q-18 -123 -119 -205z" />
<glyph unicode="&#x415;" horiz-adv-x="1196" d="M184 0v1571h910l-33 -182h-666v-488h637l-33 -182h-604v-537h699l-33 -182h-877z" />
<glyph unicode="&#x416;" horiz-adv-x="2070" d="M72 0l278 580q84 176 264 235q-143 70 -233 242l-268 514h247l211 -428q119 -242 281 -242h78v637l211 33v-670h78q162 0 280 242l211 428h248l-268 -514q-90 -172 -234 -242q180 -59 264 -235l279 -580h-248l-227 502q-98 217 -305 217h-78v-719h-211v719h-78 q-207 0 -305 -217l-228 -502h-247z" />
<glyph unicode="&#x417;" horiz-adv-x="1402" d="M113 84l80 195q182 -106 417 -107q240 0 330 74q70 59 70 203q0 252 -316 258h-262v176h256q274 8 275 254q0 133 -72 192q-82 70 -279 70q-233 0 -385 -76l-84 184q184 80 469 80q580 0 580 -420q0 -274 -234 -358q150 -27 224 -143q61 -94 61 -228q0 -455 -633 -454h-2 q-301 0 -495 100z" />
<glyph unicode="&#x418;" horiz-adv-x="1708" d="M184 0v1538l211 33v-1331q57 104 142 229l720 1102h267v-1571h-211v1319q-33 -66 -142 -229l-720 -1090h-267z" />
<glyph unicode="&#x419;" horiz-adv-x="1708" d="M184 0v1538l211 33v-1331q57 104 142 229l720 1102h267v-1571h-211v1319q-33 -66 -142 -229l-720 -1090h-267zM532 2007h132q55 -139 190 -139t190 139h132q-53 -291 -322 -291q-268 0 -322 291z" />
<glyph unicode="&#x41a;" horiz-adv-x="1462" d="M184 0v1538l211 33v-670h213q150 0 269 242l210 428h242l-256 -502q-88 -174 -239 -254q180 -49 270 -235l276 -580h-252l-227 502q-96 217 -293 217h-213v-719h-211z" />
<glyph unicode="&#x41b;" horiz-adv-x="1626" d="M37 168q147 25 211 88q55 55 74 174l104 694q35 229 170 336q139 111 408 111h438v-1571h-211v1380h-227q-199 0 -287 -88q-82 -82 -111 -284l-86 -613q-27 -195 -139 -291q-104 -90 -313 -120z" />
<glyph unicode="&#x41c;" horiz-adv-x="2158" d="M72 0l286 1571h217l429 -1106q68 -178 81 -262q14 92 78 258l428 1110h209l287 -1571h-211l-186 1001q-23 111 -37 222q-29 -104 -74 -219l-399 -1004h-207l-406 1004q-51 127 -73 219q-6 -80 -33 -224l-178 -999h-211z" />
<glyph unicode="&#x41d;" horiz-adv-x="1646" d="M184 0v1538l211 33v-670h856v637l211 33v-1571h-211v719h-856v-719h-211z" />
<glyph unicode="&#x41e;" horiz-adv-x="1810" d="M123 791q0 332 158 536q199 260 624 260q399 0 602 -231q180 -209 181 -565q0 -362 -185 -574q-203 -233 -594 -233q-393 0 -598 231q-188 211 -188 576zM356 788q0 -322 164 -479q141 -137 381 -137q265 0 406 152q147 160 147 464q0 309 -151 465q-139 145 -398 146 q-549 0 -549 -611z" />
<glyph unicode="&#x41f;" horiz-adv-x="1626" d="M184 0v1571h1258v-1571h-211v1380h-836v-1380h-211z" />
<glyph unicode="&#x420;" horiz-adv-x="1427" d="M184 0v1526q221 61 496 61q645 0 645 -534q0 -213 -123 -361q-164 -195 -504 -194q-143 0 -303 32v-530h-211zM395 723q131 -41 289 -41q408 0 408 379q0 342 -420 342q-150 0 -277 -29v-651z" />
<glyph unicode="&#x421;" horiz-adv-x="1533" d="M123 791q0 340 168 544q203 252 629 252q315 0 501 -96l-84 -201q-170 109 -417 109q-563 0 -564 -615q0 -612 564 -612q233 0 415 107l80 -195q-193 -100 -493 -100q-426 0 -631 256q-168 209 -168 551z" />
<glyph unicode="&#x422;" horiz-adv-x="1337" d="M41 1380l35 191h1220l-34 -191h-486v-1380h-211v1380h-524z" />
<glyph unicode="&#x423;" horiz-adv-x="1552" d="M82 1571h235l410 -750q90 -164 121 -272q25 117 90 272l309 750h234l-566 -1299q-72 -164 -159 -227q-84 -61 -230 -61q-152 0 -307 94l86 180q135 -86 221 -86q154 0 201 123l18 45z" />
<glyph unicode="&#x424;" horiz-adv-x="1931" d="M123 791q0 272 174 456q184 195 479 195h84v149l211 33v-182h84q295 0 479 -195q174 -184 174 -456q0 -215 -145 -400q-182 -231 -498 -231h-94v-160h-211v160h-94q-315 0 -498 231q-145 184 -145 400zM342 795q0 -211 137 -340q123 -115 287 -115h94v922h-84 q-174 0 -299 -123q-135 -131 -135 -344zM1071 340h94q164 0 287 115q137 129 137 340q0 213 -135 344q-125 123 -299 123h-84v-922z" />
<glyph unicode="&#x425;" horiz-adv-x="1558" d="M72 1571h254l456 -619l428 619h250l-561 -776l588 -795h-254l-465 629l-436 -629h-250l567 786z" />
<glyph unicode="&#x426;" horiz-adv-x="1685" d="M184 0v1538l211 33v-1381h805v1348l211 33v-1381h213v-563l-192 -28v401h-1248z" />
<glyph unicode="&#x427;" horiz-adv-x="1417" d="M102 1059v479l211 33v-490q0 -313 324 -313q186 0 385 59v711l211 33v-1571h-211v631q-182 -51 -383 -51q-537 0 -537 479z" />
<glyph unicode="&#x428;" horiz-adv-x="2185" d="M184 0v1538l211 33v-1381h592v1348l211 33v-1381h592v1348l211 33v-1571h-1817z" />
<glyph unicode="&#x429;" horiz-adv-x="2275" d="M184 0v1538l211 33v-1381h592v1348l211 33v-1381h592v1348l211 33v-1381h213v-563l-193 -28v401h-1837z" />
<glyph unicode="&#x42a;" horiz-adv-x="1691" d="M0 1380l35 191h618v-641q178 37 320 37q260 0 432 -123q184 -133 184 -361q0 -500 -661 -499q-317 0 -486 61v1335h-442zM653 197q102 -29 279 -29q428 0 428 315q0 129 -119 217q-115 84 -278 84q-168 0 -310 -41v-546z" />
<glyph unicode="&#x42b;" horiz-adv-x="1890" d="M184 45v1493l211 33v-641q178 37 320 37q260 0 432 -123q184 -133 184 -361q0 -500 -661 -499q-317 0 -486 61zM395 197q102 -29 279 -29q428 0 428 315q0 129 -119 217q-115 84 -278 84q-168 0 -310 -41v-546zM1495 0v1538l211 33v-1571h-211z" />
<glyph unicode="&#x42c;" horiz-adv-x="1433" d="M184 45v1493l211 33v-641q178 37 320 37q260 0 432 -123q184 -133 184 -361q0 -500 -661 -499q-317 0 -486 61zM395 197q102 -29 279 -29q428 0 428 315q0 129 -119 217q-115 84 -278 84q-168 0 -310 -41v-546z" />
<glyph unicode="&#x42d;" horiz-adv-x="1533" d="M113 1491q186 96 501 96q426 0 629 -252q168 -205 168 -544q0 -342 -168 -551q-205 -256 -631 -256q-298 0 -493 100l80 195q182 -106 415 -107q532 0 564 547h-721l32 182h682q-53 498 -557 498q-248 0 -417 -109z" />
<glyph unicode="&#x42e;" horiz-adv-x="2226" d="M184 0v1538l211 33v-670h230q25 295 178 469q190 217 559 217q379 0 571 -231q170 -209 170 -565q0 -362 -174 -574q-193 -233 -563 -233q-354 0 -549 209q-176 190 -194 526h-228v-719h-211zM854 788q0 -322 152 -479q129 -137 352 -137q244 0 377 152q135 160 135 464 q0 309 -139 465q-131 145 -369 146q-508 0 -508 -611z" />
<glyph unicode="&#x42f;" horiz-adv-x="1478" d="M109 0l260 453q90 158 225 235q-319 98 -320 430q0 469 555 469q266 0 465 -59v-1528h-211v643h-159q-211 0 -359 -268l-209 -375h-247zM504 1122q0 -283 327 -282h252v534q-102 29 -252 29q-328 0 -327 -281z" />
<glyph unicode="&#x430;" horiz-adv-x="1259" d="M102 334q0 358 469 358q193 0 332 -57v94q0 279 -293 279q-154 0 -370 -93l-78 187q236 82 456 82q283 0 400 -146q84 -109 84 -317v-629q-236 -109 -502 -108q-498 0 -498 350zM315 330q0 -170 293 -170q166 0 295 53v250q-154 55 -319 55q-268 0 -269 -188z" />
<glyph unicode="&#x431;" horiz-adv-x="1429" d="M133 633q0 479 107 682q106 205 395 270l500 113v-199l-455 -100q-178 -39 -250 -133q-68 -88 -78 -267q119 144 363 144q313 0 465 -193q117 -152 116 -381q0 -258 -131 -411q-152 -174 -450 -174q-289 0 -441 178q-141 168 -141 471zM332 590q0 -225 125 -338 q100 -92 258 -92q362 0 362 407q0 399 -362 400q-160 0 -262 -84q-121 -100 -121 -293z" />
<glyph unicode="&#x432;" horiz-adv-x="1302" d="M174 92v981q209 111 463 111q231 0 362 -80q139 -82 140 -240q0 -170 -207 -254q248 -57 248 -276q0 -147 -127 -242q-147 -106 -418 -106q-242 0 -461 106zM373 205q123 -41 260 -41q170 0 256 61q68 49 67 121q0 166 -249 166h-334v-307zM373 680h319q227 0 228 145 q0 178 -283 179q-143 0 -264 -41v-283z" />
<glyph unicode="&#x433;" horiz-adv-x="1017" d="M174 0v1167h803l-33 -170h-571v-997h-199z" />
<glyph unicode="&#x434;" horiz-adv-x="1413" d="M41 170h10q98 0 150 82q47 74 69 240l45 323q27 184 146 277q100 76 250 75h442v-997h199v-545l-178 -26v401h-955v-375l-178 -26v571zM340 170h614v827h-223q-195 0 -227 -227l-55 -387q-23 -141 -109 -213z" />
<glyph unicode="&#x435;" horiz-adv-x="1325" d="M133 590q0 231 115 389q147 205 452 205q272 0 398 -162q100 -129 100 -342q0 -68 -12 -141h-836q2 -375 387 -375q166 0 357 100l63 -153q-180 -127 -432 -127q-324 0 -473 196q-119 154 -119 410zM360 707h629q0 137 -74 217q-76 84 -215 84q-166 0 -256 -105 q-68 -78 -84 -196z" />
<glyph unicode="&#x436;" horiz-adv-x="1611" d="M55 0l205 430q70 143 201 176q-109 57 -172 180l-195 381h215l154 -309q88 -174 203 -174h41v453l198 30v-483h41q117 0 203 174l154 309h215l-195 -381q-63 -123 -172 -180q131 -33 201 -176l204 -430h-219l-163 358q-72 156 -226 156h-43v-514h-198v514h-43 q-154 0 -226 -156l-164 -358h-219z" />
<glyph unicode="&#x437;" horiz-adv-x="1220" d="M82 109l63 155q201 -100 396 -100q160 0 247 57q76 47 76 111q0 180 -264 180h-166v168h166q139 0 191 53q35 39 34 119q0 152 -280 152q-172 0 -359 -78l-57 174q221 84 416 84q231 0 362 -80q139 -82 140 -240q0 -170 -207 -254q248 -57 247 -276q0 -147 -126 -242 q-147 -106 -418 -106q-242 0 -461 123z" />
<glyph unicode="&#x438;" d="M174 0v1137l199 30v-903q29 63 86 146l524 757h217v-1167h-196v897q-27 -63 -84 -145l-527 -752h-219z" />
<glyph unicode="&#x439;" d="M174 0v1137l199 30v-903q29 63 86 146l524 757h217v-1167h-196v897q-27 -63 -84 -145l-527 -752h-219zM365 1614h131q55 -139 190 -139q136 0 191 139h131q-53 -291 -322 -291q-268 0 -321 291z" />
<glyph unicode="&#x43a;" horiz-adv-x="1212" d="M174 0v1137l199 30v-483h170q121 0 207 174l153 309h215l-194 -381q-63 -123 -172 -180q131 -33 200 -176l205 -430h-233l-150 358q-66 156 -231 156h-170v-514h-199z" />
<glyph unicode="&#x43b;" d="M45 150q111 16 162 67q61 61 80 203l55 395q27 184 145 277q100 76 250 75h463v-1167h-199v997h-243q-195 0 -228 -227l-55 -387q-27 -188 -119 -281q-90 -90 -276 -118z" />
<glyph unicode="&#x43c;" horiz-adv-x="1703" d="M102 0l213 1169h162l314 -809q47 -127 67 -200q25 92 64 200l311 809h156l213 -1169h-191l-119 657q-10 49 -18 136q-14 -47 -43 -125l-258 -668h-244l-262 668q-25 66 -39 125q-8 -76 -18 -136l-115 -657h-193z" />
<glyph unicode="&#x43d;" horiz-adv-x="1376" d="M174 0v1137l199 30v-483h631v453l198 30v-1167h-198v514h-631v-514h-199z" />
<glyph unicode="&#x43e;" horiz-adv-x="1429" d="M133 590q0 233 117 391q152 203 465 203t465 -203q117 -158 116 -391q0 -262 -131 -422q-154 -184 -450 -184q-287 0 -441 174q-141 160 -141 432zM352 588q0 -227 115 -338q94 -90 248 -90q158 0 252 96q111 111 110 332q0 211 -104 321q-96 98 -258 99 q-162 0 -258 -101q-104 -111 -105 -319z" />
<glyph unicode="&#x43f;" d="M174 0v1167h1026v-1167h-199v997h-628v-997h-199z" />
<glyph unicode="&#x440;" horiz-adv-x="1355" d="M174 -391v1528l199 30v-71q143 88 319 88q248 0 395 -164q145 -162 146 -428q0 -279 -150 -442q-152 -166 -411 -166q-137 0 -299 36v-411h-199zM373 207q158 -47 282 -47q359 0 359 438q0 211 -101 317q-88 92 -241 93q-164 0 -299 -103v-698z" />
<glyph unicode="&#x441;" horiz-adv-x="1202" d="M133 573q0 279 133 437q147 174 439 174q223 0 374 -72l-78 -186q-139 78 -296 78q-352 0 -353 -426q0 -414 342 -414q170 0 342 100l64 -153q-182 -127 -406 -127q-313 0 -456 211q-104 152 -105 378z" />
<glyph unicode="&#x442;" horiz-adv-x="1140" d="M72 997l32 170h965l-33 -170h-366v-997h-199v997h-399z" />
<glyph unicode="&#x443;" horiz-adv-x="1263" d="M92 1167h232l335 -911l334 911h219l-512 -1243q-72 -176 -151 -250q-86 -82 -221 -82q-99 1 -205 50l67 165q63 -39 136 -38q115 0 192 184l39 92z" />
<glyph unicode="&#x444;" horiz-adv-x="1746" d="M133 573q0 270 133 424q147 170 439 170h69v437l199 30v-467h69q291 0 439 -170q133 -154 133 -424q0 -221 -105 -368q-143 -205 -456 -205h-80v-391h-199v391h-80q-313 0 -456 205q-104 147 -105 368zM352 578q0 -397 342 -398h80v807h-69q-352 0 -353 -409zM973 180h80 q342 0 342 398q0 410 -353 409h-69v-807z" />
<glyph unicode="&#x445;" horiz-adv-x="1261" d="M72 0l448 594l-428 573h244l305 -434l309 434h240l-438 -583l436 -584h-244l-311 442l-322 -442h-239z" />
<glyph unicode="&#x446;" horiz-adv-x="1460" d="M174 0v1137l199 30v-997h628v967l199 30v-997h199v-545l-178 -26v401h-1047z" />
<glyph unicode="&#x447;" horiz-adv-x="1292" d="M123 834v303l199 30v-286q0 -172 65 -238q63 -63 223 -63q174 0 310 67v490l198 30v-1167h-198v459q-147 -59 -355 -60q-260 0 -364 136q-78 100 -78 299z" />
<glyph unicode="&#x448;" horiz-adv-x="1955" d="M174 0v1137l199 30v-997h506v967l198 30v-997h506v967l199 30v-1167h-1608z" />
<glyph unicode="&#x449;" horiz-adv-x="2041" d="M174 0v1137l199 30v-997h506v967l198 30v-997h506v967l199 30v-997h198v-545l-178 -26v401h-1628z" />
<glyph unicode="&#x44a;" horiz-adv-x="1425" d="M0 997l33 170h510v-491q139 57 331 57q244 0 365 -115q104 -98 104 -264q0 -371 -497 -370q-266 0 -502 108v905h-344zM543 213q129 -53 295 -53q293 0 292 190q0 94 -67 150q-72 59 -201 59q-166 0 -319 -55v-291z" />
<glyph unicode="&#x44b;" horiz-adv-x="1714" d="M174 92v1045l199 30v-491q139 57 332 57q244 0 364 -115q104 -98 105 -264q0 -371 -498 -370q-266 0 -502 108zM373 213q129 -53 295 -53q293 0 293 190q0 94 -68 150q-72 59 -201 59q-166 0 -319 -55v-291zM1341 0v1137l199 30v-1167h-199z" />
<glyph unicode="&#x44c;" horiz-adv-x="1255" d="M174 92v1045l199 30v-491q139 57 332 57q244 0 364 -115q104 -98 105 -264q0 -371 -498 -370q-266 0 -502 108zM373 213q129 -53 295 -53q293 0 293 190q0 94 -68 150q-72 59 -201 59q-166 0 -319 -55v-291z" />
<glyph unicode="&#x44d;" horiz-adv-x="1202" d="M133 111l64 153q172 -100 342 -100q311 0 340 344h-467l30 168h435q-41 328 -349 328q-158 0 -297 -78l-77 186q152 72 374 72q291 0 439 -174q133 -158 133 -437q0 -227 -105 -378q-143 -211 -456 -211q-224 0 -406 127z" />
<glyph unicode="&#x44e;" horiz-adv-x="1816" d="M174 0v1137l199 30v-491h192q23 211 140 342q145 166 417 166q301 0 449 -203q113 -158 112 -391q0 -262 -127 -422q-147 -184 -434 -184q-254 0 -401 147q-137 137 -158 377h-190v-508h-199zM780 588q0 -227 109 -338q88 -90 233 -90q150 0 240 96q102 111 102 332 q0 211 -100 321q-90 98 -242 99q-152 0 -241 -101q-100 -111 -101 -319z" />
<glyph unicode="&#x44f;" horiz-adv-x="1368" d="M102 0l166 350q43 88 105 146q-178 98 -178 317q0 371 497 371q266 0 502 -109v-1075h-199v434h-317q-147 0 -217 -155l-127 -279h-232zM408 817q-1 -94 67 -149q72 -59 201 -60h319v346q-129 53 -295 54q-293 0 -292 -191z" />
<glyph unicode="&#x451;" horiz-adv-x="1325" d="M133 590q0 231 115 389q147 205 452 205q272 0 398 -162q100 -129 100 -342q0 -68 -12 -141h-836q2 -375 387 -375q166 0 357 100l63 -153q-180 -127 -432 -127q-324 0 -473 196q-119 154 -119 410zM354 1513q0 60 41 101t99 41q59 0 100 -41t41 -101q0 -57 -41 -98 t-100 -41q-57 0 -99 41q-41 41 -41 98zM360 707h629q0 137 -74 217q-76 84 -215 84q-166 0 -256 -105q-68 -78 -84 -196zM788 1513q0 60 41 101t99 41q59 0 100 -41t41 -101q0 -57 -41 -98t-100 -41q-57 0 -99 41q-41 41 -41 98z" />
<glyph unicode="&#x2013;" horiz-adv-x="1212" d="M123 473v170h967v-170h-967z" />
<glyph unicode="&#x2014;" horiz-adv-x="1771" d="M123 473v170h1526v-170h-1526z" />
<glyph unicode="&#x2018;" horiz-adv-x="663" d="M215 1122q23 279 154 512h131q-55 -201 -56 -370q0 -68 7 -142h-236z" />
<glyph unicode="&#x2019;" horiz-adv-x="663" d="M164 1122q55 199 55 371q0 68 -6 141h236q-23 -279 -154 -512h-131z" />
<glyph unicode="&#x201c;" horiz-adv-x="1030" d="M215 1122q23 279 154 512h131q-55 -201 -56 -370q0 -68 7 -142h-236zM582 1122q23 279 153 512h131q-55 -201 -55 -370q0 -68 6 -142h-235z" />
<glyph unicode="&#x201d;" horiz-adv-x="1030" d="M164 1122q55 199 55 371q0 68 -6 141h236q-23 -279 -154 -512h-131zM530 1122q55 199 56 371q0 68 -6 141h235q-23 -279 -153 -512h-132z" />
<glyph unicode="&#x2020;" horiz-adv-x="1122" d="M102 1010v170h357l-4 376h202l-4 -376h367v-170h-369l-12 -1010h-166l-12 1010h-359z" />
<glyph unicode="&#x2021;" horiz-adv-x="1122" d="M102 377v172h363l-4 461h-359v170h357l-4 376h202l-6 -376h369v-170h-371l-4 -461h375v-172h-377l-4 -377h-166l-6 377h-365z" />
<glyph unicode="&#x2022;" horiz-adv-x="1179" d="M205 731q0 164 110 277q111 111 271 110q166 0 278 -110q111 -113 111 -277q0 -162 -111 -272q-113 -111 -278 -111q-160 0 -271 111t-110 272z" />
<glyph unicode="&#x2026;" horiz-adv-x="1640" d="M207 119q0 57 39 98q39 39 96 39q59 0 98 -39t39 -98q0 -57 -39 -96q-41 -39 -98 -39t-96 39t-39 96zM684 119q0 57 39 98q39 39 96 39q59 0 99 -39q39 -39 38 -98q0 -57 -38 -96q-41 -39 -99 -39q-57 0 -96 39t-39 96zM1161 119q0 57 39 98q39 39 96 39q59 0 99 -39 q39 -39 39 -98q0 -57 -39 -96q-41 -39 -99 -39q-57 0 -96 39t-39 96z" />
<glyph unicode="&#x2030;" horiz-adv-x="3395" d="M174 1110q0 209 94 334q109 143 320 143q197 0 303 -129q106 -125 106 -348q0 -231 -110 -358q-109 -125 -299 -125q-196 0 -305 127t-109 356zM375 1110q0 -324 205 -324q213 0 213 324q0 313 -209 313t-209 -313zM756 -236l731 2018l178 -31l-731 -2019zM1454 467 q0 209 94 334q109 143 320 143q197 0 303 -129q106 -125 106 -348q0 -231 -110 -358q-109 -125 -299 -125q-196 0 -305 127t-109 356zM1655 467q0 -324 205 -324q213 0 213 324q0 313 -209 313t-209 -313zM2398 467q0 209 94 334q109 143 320 143q197 0 303 -129 q106 -125 107 -348q0 -231 -111 -358q-109 -125 -299 -125q-196 0 -305 127t-109 356zM2599 467q0 -324 205 -324q213 0 213 324q0 313 -209 313t-209 -313z" />
<glyph unicode="&#x2044;" horiz-adv-x="1019" d="M51 -236l740 2046l178 -30l-740 -2048z" />
<glyph unicode="&#x20ac;" horiz-adv-x="1556" d="M72 483v191h209q-4 61 -5 96q0 39 3 59h-207v191h225q106 567 694 567q248 0 453 -96l-78 -186q-164 94 -362 94q-393 0 -472 -379h654l-35 -191h-641q-2 -14 -2 -55q0 -74 4 -100h608l-35 -191h-534q102 -311 446 -311q188 0 361 107l82 -201q-184 -94 -453 -94 q-541 -1 -672 499h-243z" />
<glyph unicode="&#x2116;" horiz-adv-x="2490" d="M184 0v1571h267l639 -1049q55 -82 141 -229v1245l211 33v-1571h-266l-674 1090q-90 131 -107 172v-1262h-211zM1614 1055q0 215 98 344q111 147 330 147q201 0 311 -133q106 -131 107 -360q0 -215 -95 -346q-111 -150 -323 -150q-205 0 -316 129q-113 131 -112 369z M1767 293v151h539v-151h-539zM1798 1055q0 -340 238 -340q239 0 239 340q0 332 -237 331q-240 0 -240 -331z" />
<glyph unicode="&#x2122;" horiz-adv-x="1929" d="M72 1311l30 159h734l-29 -159h-268v-676h-158v676h-309zM776 635l162 835h139l226 -571l217 571h139l168 -835h-164l-92 522l-201 -522h-137l-195 516l-106 -516h-156z" />
<glyph unicode="&#x2202;" horiz-adv-x="1359" d="M133 549q0 262 131 409q133 152 377 152q162 0 309 -98q-184 401 -616 508l115 133q362 -94 569 -389q188 -266 188 -586q0 -266 -92 -438q-135 -256 -448 -256q-244 0 -387 151q-145 152 -146 414zM328 549q0 -188 92 -291q90 -98 246 -98q344 0 344 502q0 63 -11 118 q-139 142 -350 142q-322 0 -321 -373z" />
<glyph unicode="&#x2206;" horiz-adv-x="1488" d="M61 0v150l590 1421h211l565 -1421v-150h-1366zM297 178h891l-432 1153z" />
<glyph unicode="&#x220f;" horiz-adv-x="1564" d="M215 -410v2149h1135v-2149h-211v1969h-713v-1969h-211z" />
<glyph unicode="&#x2211;" horiz-adv-x="1398" d="M123 -215l625 924l-607 854v176h1127v-191h-877l592 -833l-616 -916h909l-29 -190h-1124v176z" />
<glyph unicode="&#x221a;" horiz-adv-x="1429" d="M51 434v191h475l228 -756l432 1870h213l-541 -2147h-209l-276 842h-322z" />
<glyph unicode="&#x221e;" horiz-adv-x="1835" d="M82 573q0 190 108 306q115 121 320 120q258 0 412 -231q170 231 403 231q186 0 303 -104q125 -113 125 -313q0 -190 -106 -306q-115 -121 -322 -120q-273 0 -410 233q-172 -233 -413 -233q-180 0 -295 104q-125 113 -125 313zM262 582q0 -248 248 -248q203 -1 326 237 q-117 256 -322 256q-121 0 -186 -65q-66 -66 -66 -180zM999 582q123 -254 328 -254q246 0 246 254q0 240 -248 239q-203 0 -326 -239z" />
<glyph unicode="&#x222b;" horiz-adv-x="976" d="M72 -377l84 176q76 -43 127 -43q109 0 108 146v1491q0 342 303 342q113 0 211 -52l-84 -176q-76 43 -127 43q-109 0 -108 -145v-1491q0 -342 -303 -342q-113 0 -211 51z" />
<glyph unicode="&#x2248;" horiz-adv-x="1341" d="M154 354q150 180 307 181q88 0 215 -72q129 -74 215 -74q96 0 248 176l49 -190q-156 -180 -307 -180q-84 0 -228 73q-143 72 -204 72q-88 0 -246 -176zM154 848q150 180 307 180q88 0 215 -72q129 -74 215 -73q96 0 248 176l49 -191q-156 -180 -307 -180q-84 0 -228 74 q-143 72 -204 72q-88 0 -246 -177z" />
<glyph unicode="&#x2260;" d="M154 299v170h372l111 305h-483v170h544l111 303l141 -24l-102 -279h373v-170h-435l-110 -305h545v-170h-607l-112 -311l-142 24l105 287h-311z" />
<glyph unicode="&#x2264;" horiz-adv-x="1376" d="M154 641v160l1067 379v-187l-842 -272l842 -272v-187zM156 0v170h1067v-170h-1067z" />
<glyph unicode="&#x2265;" horiz-adv-x="1376" d="M154 0v170h1067v-170h-1067zM156 262v187l841 272l-841 272v187l1067 -379v-160z" />
<glyph unicode="&#x25ca;" horiz-adv-x="1275" d="M92 778l506 830h80l506 -830l-506 -829h-80zM324 778l313 -522l315 522l-313 525z" />
<glyph unicode="&#x25fc;" horiz-adv-x="1167" d="M0 0v1167h1167v-1167h-1167z" />
<glyph unicode="&#xf8ff;" horiz-adv-x="1140" d="M10 0v1546h1120v-1546h-1120zM147 137h846v1272h-846v-1272zM313 1233q90 49 230 49q291 0 291 -248q0 -133 -201 -334q-63 -66 -64 -129v-57h-129v70q0 115 113 217q139 129 139 219q0 139 -153 139q-92 0 -177 -47zM418 334q0 39 24 65q27 29 66 29q37 0 63 -29 q27 -29 27 -65q0 -35 -27 -62q-27 -29 -63 -28q-39 -1 -66 28q-25 27 -24 62z" />
<glyph unicode="&#xfb01;" horiz-adv-x="1382" d="M41 999v168h158v60q0 424 385 424q160 0 307 -72l-78 -186q-104 74 -223 73q-193 0 -193 -239v-60h303l-30 -168h-273v-999h-198v999h-158zM938 1491q0 59 41 100t98 41q59 0 101 -41q41 -41 41 -100q0 -57 -41 -98t-101 -41q-57 0 -98 41t-41 98zM979 0v1137l199 30 v-1167h-199z" />
<glyph unicode="&#xfb02;" horiz-adv-x="1351" d="M41 999v168h158v60q0 424 385 424q160 0 307 -72l-78 -186q-104 74 -223 73q-193 0 -193 -239v-60h303l-30 -168h-273v-999h-198v999h-158zM979 0v1604l199 30v-1634h-199z" />
</font>
</defs>
</svg>
